<?xml version="1.0" encoding="utf-8"?>
<!-- Generator: Adobe Illustrator 27.0.0, SVG Export Plug-In . SVG Version: 6.00 Build 0)  -->
<svg version="1.1" id="Layer_1" xmlns="http://www.w3.org/2000/svg" xmlns:xlink="http://www.w3.org/1999/xlink" x="0px" y="0px"
	 viewBox="0 0 500 500" style="enable-background:new 0 0 500 500;" xml:space="preserve">
<style type="text/css">
	.st0{fill:#B0BEC5;}
	.st1{fill:#263238;}
	.st2{opacity:0.4;}
	.st3{opacity:0.2;}
	.st4{fill:#FFFFFF;}
	.st5{fill:#FAFAFA;}
	.st6{opacity:0.3;}
	.st7{fill:none;}
	.st8{fill:#455A64;}
	.st9{fill:#F5F5F5;}
	.st10{opacity:0.5;}
	.st11{fill:#E0E0E0;}
	.st12{fill:#C78976;}
	.st13{fill:#8B5D54;}
</style>
<path class="st0" d="M191.7,437.6L72.4,318.2C33,278.9,33,215,72.4,175.6L191.7,56.3C231.1,17,295,17,334.3,56.3l119.3,119.3
	c39.4,39.4,39.4,103.2,0,142.6L334.3,437.6C295,476.9,231.1,476.9,191.7,437.6z"/>
<g id="freepik--Floor--inject-31">
	<path class="st1" d="M469.5,484.7c0,0.2-101.4,0.3-226.3,0.3s-226.4-0.1-226.4-0.3s101.3-0.3,226.4-0.3S469.5,484.6,469.5,484.7z"
		/>
</g>
<g id="freepik--Coin--inject-31">
	<circle class="st0" cx="286.7" cy="73.2" r="65.6"/>
	<g class="st2">
		<circle cx="286.7" cy="73.2" r="65.6"/>
	</g>
	<circle class="st0" cx="281.3" cy="67.3" r="65.6"/>
	<g class="st3">
		<ellipse transform="matrix(0.9554 -0.2954 0.2954 0.9554 -7.1721 85.9338)" class="st4" cx="280.9" cy="66.7" rx="50" ry="48.8"/>
	</g>
	<path class="st5" d="M295.2,113.1c-25.8,8-53.4-6-62.1-31.6c0.1,0.5,0.2,0.9,0.4,1.4c8.4,26.3,36.6,40.8,62.9,32.4
		c25.9-8.3,40.5-35.8,32.7-61.9c-0.1-0.5-0.3-0.9-0.5-1.4C335.8,78,321.1,105.1,295.2,113.1z"/>
	<g class="st6">
		<path d="M266.5,20.3c25.8-8,53.4,6,62.1,31.6c-0.1-0.5-0.2-0.9-0.4-1.4c-8.2-26.4-36.2-41.2-62.5-33s-41.2,36.2-33,62.5
			c0.1,0.5,0.3,0.9,0.5,1.3C225.9,55.4,240.7,28.3,266.5,20.3z"/>
	</g>
	<path class="st0" d="M310,72.6c-2.1-6.7-6.6-10.1-11.9-10.4c2.7-3.2,3.8-7.8,2.1-13.1c-2-6.6-7.2-10.1-14.6-9.6l-2.5-8.1l-7.5,2.3
		l2.3,7.6l-4.3,1.3l-2.3-7.6l-7.5,2.2l2.3,7.6l-6.9,2.1l-4.8,1.5l2.3,7.6l4.8-1.5L273,91.1l-5.3,1.6l2.3,7.5l5.3-1.6l0,0l6.9-2.1
		l2.7,8.8l7.5-2.3l-2.7-8.8l4.3-1.3l2.7,8.8l7.5-2.3l-2.8-9.1C309.4,86.5,312.3,80.2,310,72.6z M271.2,51.7l10.2-3.2
		c5.6-1.7,9.6-0.4,11,4.4c1.4,4.8-1,8.1-6.6,9.8l-11.5,3.6l-4.4-14.2L271.2,51.7z M294.3,84.6L282,88.4l-0.9,0.3l-4.6-14.9l13.2-4.1
		c6.1-1.9,10.2-0.6,11.8,4.5C303.1,79.4,300.4,82.7,294.3,84.6L294.3,84.6z"/>
	<g class="st6">
		<path d="M310,72.6c-2.1-6.7-6.6-10.1-11.9-10.4c2.7-3.2,3.8-7.8,2.1-13.1c-2-6.6-7.2-10.1-14.6-9.6l-2.5-8.1l-7.5,2.3l2.3,7.6
			l-4.3,1.3l-2.3-7.6l-7.5,2.2l2.3,7.6l-6.9,2.1l-4.8,1.5l2.3,7.6l4.8-1.5L273,91.1l-5.3,1.6l2.3,7.5l5.3-1.6l0,0l6.9-2.1l2.7,8.8
			l7.5-2.3l-2.7-8.8l4.3-1.3l2.7,8.8l7.5-2.3l-2.8-9.1C309.4,86.5,312.3,80.2,310,72.6z M271.2,51.7l10.2-3.2
			c5.6-1.7,9.6-0.4,11,4.4c1.4,4.8-1,8.1-6.6,9.8l-11.5,3.6l-4.4-14.2L271.2,51.7z M294.3,84.6L282,88.4l-0.9,0.3l-4.6-14.9
			l13.2-4.1c6.1-1.9,10.2-0.6,11.8,4.5C303.1,79.4,300.4,82.7,294.3,84.6L294.3,84.6z"/>
	</g>
	<path class="st0" d="M306.3,73.8c-2.1-6.7-6.6-10.1-11.9-10.4c2.7-3.2,3.8-7.8,2.1-13.1c-2-6.6-7.2-10.1-14.6-9.6l-2.5-8.1
		l-7.5,2.3l2.3,7.6l-4.3,1.3l-2.3-7.5l-7.5,2.3l2.3,7.6l-6.8,2.1l-4.8,1.4l2.3,7.5l4.8-1.5l11.3,36.6l-5.3,1.6l2.3,7.5l5.3-1.6l0,0
		l6.9-2.1l2.7,8.8l7.5-2.3l-2.7-8.8l4.3-1.3l2.7,8.8l7.5-2.3l-2.8-9.1C305.8,87.6,308.7,81.4,306.3,73.8z M267.5,52.8l10.2-3.1
		c5.6-1.8,9.6-0.4,11,4.4s-1,8.1-6.6,9.8l-11.5,3.6l-4.4-14.2L267.5,52.8z M290.7,85.7l-12.3,3.8l-0.9,0.3l-4.6-14.9l13.2-4.1
		c6.1-1.9,10.2-0.7,11.8,4.5C299.4,80.5,296.8,83.8,290.7,85.7L290.7,85.7z"/>
	<path class="st5" d="M333.8,27.6c-0.1,0.1-1.9-2.2-5.5-5.9c-13-13-30.8-20-49.2-19.3c-6.4,0.2-12.7,1.4-18.8,3.5
		c-3.2,1.1-6.3,2.4-9.2,4c-6.2,3.3-11.7,7.5-16.5,12.5c-2.3,2.4-4.5,5-6.4,7.8c-1.9,2.7-3.5,5.5-5,8.4c-1.4,2.8-2.6,5.7-3.5,8.7
		c-1.8,5.5-2.8,11.2-3.1,17c-0.6,12.4,2.3,24.7,8.3,35.6c2.5,4.5,4.3,6.8,4.2,6.9c-0.5-0.5-1-1-1.4-1.6c-0.4-0.5-0.9-1.2-1.5-2.1
		c-0.6-0.8-1.2-1.8-1.9-2.9c-3.9-6.4-6.6-13.4-8-20.7c-1-5-1.4-10.2-1.2-15.3c0.2-5.9,1.3-11.8,3.1-17.4c1-3.1,2.1-6,3.5-8.9
		c1.5-3,3.1-5.9,5-8.6c2-2.8,4.2-5.5,6.5-8c4.9-5.2,10.7-9.5,17-12.8c3.1-1.6,6.2-3,9.5-4.1c6.2-2.1,12.7-3.3,19.2-3.5
		c11.1-0.4,22.1,2.1,32,7.1c6.6,3.4,12.6,7.9,17.7,13.3c0.9,0.9,1.7,1.8,2.3,2.6c0.6,0.8,1.2,1.4,1.6,2
		C333,26.4,333.4,27,333.8,27.6z"/>
	<path class="st5" d="M267.7,36.2c0.1,0.3-2.8,1.4-7.3,3l0.5-0.9c0.8,2.2,1.6,4.7,2.5,7.5l0.3,0.8l-0.8,0.3l-2,0.6
		c-3.6,1.1-6.9,2.1-9.6,2.8l0.5-0.9c1.3,4.6,1.9,7.6,1.6,7.7c-0.3,0.1-1.5-2.8-3-7.3l-0.2-0.7l0.7-0.2c2.7-0.9,6-2,9.6-3.1l2-0.6
		l-0.6,1.1c-0.8-2.8-1.6-5.4-2.2-7.6l-0.2-0.7l0.7-0.2C264.6,36.6,267.6,35.9,267.7,36.2z"/>
	<path class="st5" d="M281.1,32.2c0.1,0.5-1.8,1.5-4.3,2.2c-2.5,0.8-4.7,1-4.8,0.6c-0.1-0.5,1.8-1.5,4.3-2.2
		C278.8,32,280.9,31.7,281.1,32.2z"/>
	<path class="st5" d="M268.7,91.9c-0.5,0.1-3.3-7.8-6.4-17.7s-5.2-18-4.7-18.2c0.5-0.1,3.3,7.7,6.4,17.7S269.2,91.7,268.7,91.9z"/>
	<path class="st5" d="M285.9,62.7c0.1,0.5-3,1.8-7,3.1c-4,1.2-7.4,1.9-7.5,1.4c-0.1-0.5,3-1.8,7-3.1
		C282.4,62.9,285.8,62.3,285.9,62.7z"/>
	<path class="st5" d="M293.1,85c0.1,0.5-3,1.8-7,3.1s-7.4,1.9-7.5,1.4c-0.1-0.5,3-1.8,7-3.1C289.6,85.1,293,84.5,293.1,85z"/>
	<path class="st1" d="M286.5,138.8c-2-1.7-3.8-3.7-5.2-5.9C283.3,134.6,285.1,136.6,286.5,138.8z"/>
	<path class="st1" d="M275.2,137.7c-1.9-1.6-3.6-3.6-5-5.7c1,0.8,1.9,1.6,2.7,2.7C273.8,135.5,274.6,136.5,275.2,137.7z"/>
	<path class="st1" d="M264.6,135c-1-0.7-1.9-1.6-2.7-2.7c-0.9-0.9-1.7-1.9-2.3-3c1,0.7,2,1.6,2.7,2.7
		C263.2,132.9,264,133.9,264.6,135z"/>
	<path class="st1" d="M298,137.9c-1.1-0.8-2-1.7-2.8-2.8c-0.9-0.9-1.8-2-2.4-3.2c1.1,0.8,2,1.7,2.8,2.8
		C296.5,135.7,297.3,136.8,298,137.9z"/>
	<path class="st1" d="M308.3,135.2c-1.1-0.8-2-1.7-2.8-2.8c-0.9-0.9-1.8-2-2.4-3.2C305,131,306.8,133,308.3,135.2L308.3,135.2z"/>
	<path class="st1" d="M317.9,130.9c-1.1-0.8-2-1.7-2.8-2.8c-0.9-0.9-1.8-2-2.4-3.2c1.1,0.8,2,1.7,2.8,2.8
		C316.5,128.7,317.3,129.7,317.9,130.9z"/>
	<path class="st1" d="M326.6,125.6c-1.1-0.8-2-1.7-2.8-2.8c-0.9-0.9-1.8-2-2.4-3.2c1.1,0.8,2,1.7,2.8,2.8
		C325.1,123.4,325.9,124.4,326.6,125.6z"/>
	<path class="st1" d="M334.4,118.5c-1.1-0.8-2-1.7-2.8-2.8c-0.9-0.9-1.8-2-2.4-3.2c1.1,0.8,2,1.7,2.8,2.8
		C332.9,116.3,333.8,117.4,334.4,118.5z"/>
	<path class="st1" d="M340.8,110.5c-1.1-0.8-2-1.7-2.8-2.8c-0.9-0.9-1.8-2-2.4-3.2c1.1,0.8,2,1.7,2.8,2.8
		C339.4,108.3,340.2,109.4,340.8,110.5z"/>
	<path class="st1" d="M345.6,102.6c-1.1-0.8-2-1.7-2.8-2.8c-0.9-0.9-1.8-2-2.4-3.2c1.1,0.8,2,1.7,2.8,2.8
		C344.1,100.3,344.9,101.4,345.6,102.6z"/>
	<path class="st1" d="M349.5,93.6c-1.1-0.8-2-1.7-2.8-2.8c-0.9-0.9-1.8-2-2.4-3.2c1.1,0.8,2,1.7,2.8,2.8
		C348.1,91.4,348.9,92.4,349.5,93.6z"/>
	<path class="st1" d="M352.2,83.9c-1.1-0.8-2-1.7-2.8-2.8c-0.9-0.9-1.8-2-2.4-3.2c1.1,0.8,2,1.7,2.8,2.8
		C350.8,81.7,351.6,82.7,352.2,83.9z"/>
	<path class="st1" d="M353.1,73.4c-1.1-0.8-2-1.7-2.8-2.8c-0.9-0.9-1.8-2-2.4-3.2c1.1,0.8,2,1.7,2.8,2.8
		C351.6,71.2,352.5,72.2,353.1,73.4z"/>
	<path class="st1" d="M352.3,62.6c-1.3-1-2.4-2.1-3.4-3.4c-1.1-1.2-2.1-2.4-3-3.8c1.3,1,2.4,2.2,3.4,3.4
		C350.4,59.9,351.4,61.2,352.3,62.6z"/>
	<path class="st1" d="M347.8,48.1c-1.3-1-2.4-2.2-3.4-3.4c-1.1-1.2-2.1-2.4-3-3.8c1.3,1,2.4,2.2,3.4,3.4
		C346,45.5,346.9,46.7,347.8,48.1z"/>
	<g class="st3">
		<path class="st7" d="M251.5,85c-0.1,0.3,0,0.6,0.2,0.8c0.2,0.3,0.6,0.4,0.9,0.3c0.3-0.1,0.6-0.4,0.6-0.8c0-0.3-0.1-0.6-0.3-0.8
			c-0.4-0.3-0.8-0.2-0.8-0.3S251.7,84.5,251.5,85z"/>
		<path class="st7" d="M278.4,56.7c-0.1,0.3,0,0.6,0.2,0.8c0.3,0.4,0.9,0.4,1.2,0.1c0.2-0.2,0.3-0.4,0.3-0.6c0-0.1,0-0.2,0-0.3l0,0
			c0-0.2-0.2-0.4-0.3-0.5c-0.4-0.3-0.8-0.2-0.9-0.3C278.9,55.9,278.5,56.2,278.4,56.7z"/>
		<path class="st7" d="M252.3,116.4c-0.1,0.3,0,0.6,0.2,0.8c0.2,0.3,0.6,0.4,0.9,0.3c0.3-0.1,0.6-0.4,0.6-0.8c0-0.3-0.1-0.6-0.3-0.8
			c-0.4-0.3-0.8-0.2-0.8-0.3S252.4,115.9,252.3,116.4z"/>
		<path class="st7" d="M316.9,50.3c-0.1,0.3,0,0.6,0.2,0.8c0.3,0.4,0.9,0.4,1.2,0.1c0.2-0.2,0.3-0.4,0.3-0.6c0-0.3-0.1-0.6-0.3-0.8
			c-0.4-0.3-0.8-0.2-0.8-0.3C317.4,49.5,317.1,49.8,316.9,50.3z"/>
		<path class="st7" d="M246,36c-0.1,0.3,0,0.6,0.2,0.8c0.2,0.3,0.6,0.4,0.9,0.3c0.3-0.1,0.6-0.4,0.6-0.8c0-0.3-0.1-0.6-0.3-0.8
			c-0.2-0.2-0.4-0.2-0.7-0.3v0.1c0.1,0.2,0.1,0.4,0.1,0.6c-0.1-0.2-0.2-0.4-0.2-0.5l-0.1-0.2h-0.1C246.5,35.3,246.2,35.4,246,36z"/>
		<path class="st7" d="M317.4,37.9c-0.1,0.3,0,0.6,0.2,0.8c0.3,0.4,0.9,0.4,1.2,0.1c0.2-0.2,0.3-0.4,0.3-0.6c0-0.3-0.1-0.6-0.3-0.8
			c-0.4-0.3-0.8-0.2-0.9-0.3C317.9,37.1,317.5,37.3,317.4,37.9z"/>
		<path class="st7" d="M277.3,61.7c-0.1,0.3,0,0.6,0.2,0.8c0.2,0.3,0.6,0.4,0.9,0.3c0.3-0.1,0.6-0.4,0.6-0.8c0-0.3-0.1-0.5-0.2-0.7
			l0,0c-0.2,0-0.3,0-0.3,0c0.1,0,0.2-0.1,0.2-0.1l-0.1-0.1c-0.4-0.3-0.8-0.2-0.8-0.3C277.8,60.9,277.4,61.2,277.3,61.7z"/>
		<path class="st7" d="M272.2,78c-0.1,0.3,0,0.6,0.2,0.8c0.2,0.3,0.6,0.4,0.9,0.3c0.3-0.1,0.6-0.4,0.6-0.8c0-0.1,0-0.1,0-0.2h-0.1
			h0.1c0-0.2-0.1-0.4-0.3-0.6c-0.4-0.3-0.8-0.2-0.9-0.3C272.7,77.2,272.4,77.4,272.2,78z"/>
		<path class="st4" d="M235.5,54.8l51.1-15.9l9.5,6.5h0.1h0.1l15.4-4.9l4.1-1.3l1.1-0.4l0.2-0.1c0,0.1,0,0.1,0.1,0.2
			c0.4,0.6,1.2,0.7,1.8,0.3c0.3-0.2,0.5-0.6,0.5-1c0-0.4-0.2-0.9-0.6-1.1c-0.2-0.1-0.5-0.2-0.8-0.2c-0.2,0-0.3,0.1-0.3,0.1
			c0,0,0.4,0,0.9,0.3c0.2,0.2,0.4,0.5,0.3,0.8c0,0.5-0.5,0.8-0.9,0.8c-0.2,0-0.5-0.1-0.6-0.3c-0.2-0.2-0.3-0.5-0.2-0.8
			c0.2-0.5,0.6-0.7,0.5-0.7c0-0.1-0.1,0-0.3,0c-0.2,0.1-0.4,0.3-0.6,0.6c-0.1,0.3-0.1,0.7,0,1h-0.2l-1.1,0.3l-4.2,1.3L296.2,45
			l-9.4-6.5l-0.1-0.1h-0.1l-51.2,16l-19.3,6c0,0.2,0,0.3,0,0.5L235.5,54.8z"/>
		<path class="st4" d="M314.9,25.7l9.9,6.7h0.1h0.1l9.9-3.1l-0.2-0.2l-9.7,2.9l-9.9-6.8h-0.1h-0.1l-6.4,2l-23.7,7.4l-7.2,2.3l-2,0.7
			c-0.2,0.1-0.5,0.1-0.7,0.3c0.2,0,0.5-0.1,0.7-0.2l2-0.6l7.2-2.2l23.8-7.3L314.9,25.7z"/>
		<path class="st4" d="M268.2,65.6l5.5,1.1h0.1l8.5-2.6l2.2-0.7h0.2c0.1,0.3,0.5,0.5,0.8,0.4c0.3-0.1,0.5-0.5,0.4-0.8
			c-0.1-0.3-0.5-0.5-0.8-0.4c-0.3,0.1-0.5,0.4-0.4,0.8h-0.2l-2.2,0.6l-8.5,2.4l-5.5-1.1h-0.1l-35.9,11l-12.6,3.9l-2.8-0.7
			c0,0.2,0,0.3,0.1,0.5l2.6,0.7h0.1h0.1l12.7-3.9L268.2,65.6z"/>
		<path class="st4" d="M272.2,61.4l-5.1-0.5l0,0l0,0l-3,0.9c-0.6-1.9-1.1-3.8-1.7-5.5l-0.1-0.2l-0.2,0.1l-13.9,4.5l-3.8,1.3L244,62
			c-0.1-0.3-0.5-0.5-0.8-0.4c-0.3,0.1-0.5,0.5-0.4,0.8c0.1,0.3,0.5,0.5,0.8,0.4l0,0c0.3-0.1,0.5-0.4,0.4-0.8l0.4-0.1l3.9-1.2
			l13.7-4.3c0.5,1.8,1.1,3.6,1.6,5.6l0.1,0.2l0.2-0.1l3.2-1l5.1,0.5l0,0l0,0l5.9-1.8l26.5-8.3l5.6,1.7h0.1l5-1.6l1.3-0.4h0.1l0,0
			c0.4,0.6,1.2,0.7,1.8,0.3c0.3-0.2,0.5-0.6,0.5-1c0-0.4-0.2-0.9-0.6-1.1c-0.2-0.2-0.5-0.2-0.8-0.2c-0.2,0-0.3,0.1-0.3,0.1
			c0,0,0.4,0,0.8,0.3c0.2,0.2,0.4,0.5,0.3,0.8c0,0.5-0.5,0.8-0.9,0.8c-0.2,0-0.5-0.1-0.6-0.3c-0.2-0.2-0.3-0.5-0.2-0.8
			c0.2-0.5,0.6-0.7,0.6-0.7c0-0.1-0.1,0-0.3,0c-0.3,0.1-0.5,0.3-0.6,0.6c-0.1,0.4-0.1,0.8,0.1,1.1h-0.1l-1.3,0.4l-5,1.5l-5.6-1.8
			l0,0h-0.1L278,59.4L272.2,61.4z"/>
		<path class="st4" d="M253.8,115.7c-0.2-0.1-0.5-0.2-0.8-0.2c-0.2,0-0.3,0.1-0.3,0.1c0,0,0.4-0.1,0.8,0.3c0.2,0.2,0.4,0.5,0.3,0.8
			c0,0.4-0.3,0.7-0.6,0.8c-0.3,0.1-0.7,0-0.9-0.3c-0.2-0.2-0.3-0.6-0.2-0.8c0.2-0.5,0.6-0.7,0.6-0.7c0-0.1-0.1,0-0.3,0
			c-0.3,0.1-0.5,0.3-0.6,0.6c-0.2,0.4-0.1,0.9,0.1,1.2c0.4,0.6,1.2,0.7,1.8,0.3c0.3-0.2,0.5-0.6,0.5-1l0,0h0.2l0.9-0.3l3.5-1
			l12.4-3.8h0.1v-0.1c0.6-2.6,1.3-5.5,2.1-8.5V103V103l-1.1-3.5c-1.6-5.1-3.1-9.9-4.4-14v-0.1h-0.1l-6.9-2.8h-0.1l-5.8,1.9l-1.5,0.5
			l-0.2,0.1c-0.1-0.3-0.3-0.5-0.5-0.7c-0.2-0.1-0.5-0.2-0.8-0.2c-0.2,0-0.3,0.1-0.3,0.1c0,0,0.4,0,0.8,0.3c0.2,0.2,0.4,0.5,0.3,0.8
			c0,0.4-0.3,0.7-0.6,0.8c-0.3,0.1-0.7,0-0.9-0.3c-0.2-0.2-0.3-0.6-0.2-0.8c0.2-0.5,0.6-0.7,0.6-0.7c0-0.1-0.1,0-0.3,0
			c-0.3,0.1-0.5,0.3-0.6,0.6c-0.2,0.4-0.1,0.9,0.1,1.2c0.4,0.6,1.2,0.7,1.8,0.3c0.3-0.2,0.5-0.6,0.5-1c0-0.1,0-0.2,0-0.3h0.2
			l1.6-0.5l5.8-1.7l6.7,2.7c1.3,4.1,2.7,8.8,4.3,13.9l1.1,3.4l-2.1,8.2l-12.2,3.9l-3.5,1.1l-0.9,0.3l-0.2,0.1
			C254.4,116.2,254.2,115.9,253.8,115.7z"/>
		<path class="st4" d="M317.5,83.3c0.3-0.1,0.5-0.4,0.4-0.8l0,0l1.8-0.5l6.8-2l0,0l0,0l6-7.5l14.3-4.4c0-0.2,0-0.3,0-0.5l-14.4,4.5
			h-0.1l0,0l-5.9,7.5l-6.7,2.1l-1.8,0.6l0,0c-0.1-0.3-0.5-0.5-0.8-0.4c-0.3,0.1-0.5,0.5-0.4,0.8c0,0,0,0,0,0
			C316.8,83.1,317.1,83.3,317.5,83.3z"/>
		<path class="st4" d="M292.7,131.7c-0.1-0.2-0.1-0.5-0.2-0.8l-1.1-3.8c-0.9-3.2-2.3-7.7-3.8-12.6c-0.5-1.5-0.9-3-1.4-4.4v-0.1H286
			l-8.7-4.6c-0.4-1.2-0.7-2.1-1-2.9c-0.2-0.5-0.3-0.8-0.3-0.9c0.1,0,0.2,0,0.2,0c0.4-0.1,0.6-0.4,0.5-0.8c-0.1-0.4-0.4-0.6-0.8-0.5
			c-0.4,0.1-0.6,0.4-0.5,0.8c0.1,0.3,0.3,0.4,0.5,0.5c0,0.1,0.1,0.5,0.3,1c0.2,0.8,0.5,1.8,0.8,3l0,0h0.1l8.5,4.6l1.3,4.4
			c1.5,4.9,2.9,9.4,3.9,12.6c0.5,1.5,0.9,2.8,1.3,3.8C292.4,131.2,292.5,131.5,292.7,131.7c-0.2,0.1-0.4,0.2-0.4,0.3l1-0.2
			C293.1,131.7,292.9,131.6,292.7,131.7z"/>
		<path class="st4" d="M243.3,43c0.1,0.4,0.5,0.6,0.8,0.4c0.4-0.1,0.6-0.5,0.4-0.8c-0.1-0.4-0.5-0.6-0.8-0.4c0,0,0,0,0,0
			C243.4,42.3,243.2,42.7,243.3,43z"/>
		<path class="st4" d="M306.3,90.9l1.3-0.4l0.2-0.1c0,0,0,0.1,0,0.1c0.1,0.4,0.4,0.6,0.8,0.6c0.4-0.1,0.6-0.4,0.6-0.8
			c-0.1-0.4-0.4-0.6-0.8-0.6c-0.3,0-0.5,0.3-0.6,0.6h-0.2l-1.3,0.3l-4.7,1.3l-15.8,4.4c-0.6-1.7-1.2-3.6-1.8-5.4l-0.5-1.5
			c1.6-2.7,3.1-5.2,4.4-7.5v-0.1v-0.1c-0.6-2-1.2-3.9-1.8-5.6v-0.1H286l-2.2-1.2h-0.1h-0.1l-7.1,2.3l-1.9,0.7l-0.2,0.1
			c-0.1-0.3-0.3-0.5-0.5-0.7c-0.2-0.1-0.5-0.2-0.8-0.2c-0.2,0-0.3,0.1-0.3,0.1c0,0,0.4,0,0.9,0.3c0.2,0.1,0.3,0.3,0.3,0.6h-0.1
			c0,0,0,0,0.1,0c0,0.1,0,0.1,0,0.2c0,0.4-0.3,0.7-0.6,0.8c-0.3,0.1-0.7,0-0.9-0.3c-0.2-0.2-0.3-0.5-0.2-0.8
			c0.2-0.5,0.6-0.7,0.5-0.7c0-0.1-0.1,0-0.3,0c-0.2,0.1-0.4,0.3-0.6,0.6c-0.2,0.4-0.1,0.9,0.1,1.2c0.4,0.6,1.2,0.7,1.8,0.3
			c0.3-0.2,0.5-0.6,0.5-1c0-0.1,0-0.2,0-0.3l0.2-0.1l2-0.6l7.1-2.1l2.1,1.1c0.5,1.7,1.1,3.5,1.7,5.5l-4.5,7.5v0.1v0.1
			c0.2,0.5,0.4,1.1,0.5,1.6c0.7,1.9,1.3,3.8,1.9,5.6l0.1,0.2l0.2-0.1l16-4.5L306.3,90.9z"/>
		<path class="st4" d="M296.3,90.8c-1.2-4.1-2.5-8.5-3.8-12.9c-0.2-0.6-0.4-1.2-0.5-1.8V76h-0.1l-7.3-4.1h-0.1h-0.1L247,83.6l0,0
			l0,0l-20,20.4c0.1,0.1,0.1,0.2,0.2,0.3l20.1-20.3l37.3-11.5l7.1,4c0.2,0.6,0.3,1.1,0.5,1.7c1.3,4.5,2.6,8.9,3.8,13.1l0.1,0.2
			l0.2-0.1l50.2-15c0-0.1,0-0.2,0-0.4L296.3,90.8z"/>
		<path class="st4" d="M290.5,67.3c0.4,1.2,1,3,1.7,5.2l0,0h0.1l12.6,6.2h0.1h0.1l14.1-4.4l24.4-7.5l3.4-1.1c0-0.1,0-0.2,0-0.3
			l-3.5,1.1L319,74l-14.1,4.4l-12.5-6l-1.8-5.2l-0.5-1.4c0-0.2-0.1-0.3-0.2-0.5c0,0.2,0.1,0.3,0.1,0.5L290.5,67.3z"/>
		<path class="st4" d="M299.3,48.1L299.3,48.1L299.3,48.1l-3.3,3.4l-11.5,3.7l-3.3,1.1c-0.3,0.1-0.6,0.2-0.8,0.3
			c-0.1-0.2-0.3-0.5-0.5-0.6c-0.2-0.1-0.5-0.2-0.8-0.2c-0.2,0-0.3,0.1-0.3,0.1c0,0,0.4-0.1,0.9,0.3c0.1,0.1,0.2,0.3,0.3,0.5l0,0
			c0,0.1,0,0.2,0,0.3c0,0.5-0.5,0.8-1,0.8c-0.2,0-0.5-0.1-0.6-0.3c-0.2-0.2-0.3-0.5-0.2-0.8c0.2-0.5,0.6-0.7,0.5-0.7s-0.1,0-0.3,0
			c-0.2,0.1-0.4,0.3-0.6,0.6c-0.2,0.4-0.1,0.9,0.1,1.2c0.4,0.6,1.2,0.7,1.8,0.3c0.3-0.2,0.5-0.6,0.5-1c0-0.1,0-0.3-0.1-0.4l0.8-0.2
			l3.3-1l11.6-3.5h0.1l0,0l3.2-3.4l6.2-1.8l19-5.6l5.7-1.7l1.5-0.5c0.1,0.4,0.5,0.5,0.9,0.4c0.4-0.1,0.5-0.5,0.4-0.9
			c-0.1-0.3-0.5-0.5-0.8-0.4c-0.3,0.1-0.5,0.5-0.4,0.8l0,0l-1.5,0.4l-5.8,1.6l-19.1,5.4L299.3,48.1z"/>
		<path class="st4" d="M280.6,119.1c-0.5-1.8-1.1-3.5-1.6-5.1v-0.1h-0.1l-4.5-1.7h-0.1h-0.1l-9,2.9l-2.5,0.8l-0.3,0.1
			c-0.1-0.3-0.5-0.5-0.8-0.4c-0.3,0.1-0.5,0.5-0.4,0.8c0.1,0.3,0.5,0.5,0.8,0.4c0,0,0,0,0,0c0.3-0.1,0.5-0.4,0.4-0.8l0.3-0.1
			l2.6-0.7l9-2.7l4.3,1.6c0.5,1.6,1,3.3,1.5,5l4.3,13.6h0.3C283.6,129,282.2,124.3,280.6,119.1z"/>
		<path class="st4" d="M289,128.6L289,128.6v-0.2c-2.1-6.7-4.1-13.1-5.8-18.6v-0.1h-0.1l-6.6-3.4c-1.5-4.8-2.7-8.6-3.6-11.4l-1-3.1
			c-0.1-0.3-0.2-0.6-0.3-0.8h0.2c0.3-0.1,0.5-0.5,0.4-0.8c-0.1-0.3-0.5-0.5-0.8-0.4c-0.3,0.1-0.5,0.5-0.4,0.8l0,0
			c0.1,0.3,0.3,0.5,0.6,0.5c0,0.2,0.1,0.5,0.2,0.8c0.2,0.8,0.5,1.8,0.9,3.2c0.8,2.8,2,6.7,3.5,11.5v0.1h0.1l6.6,3.5l5.7,18.5
			l-0.5,0.9l-1.8,3.4h0.5l1.7-3.2L289,128.6z"/>
		<path class="st4" d="M342.1,88l-31.5,9.7l-6.9,2.1h-0.1v0.2c-0.2,3.1-0.4,6-0.5,8.8v0.1c2.2,7,4.1,13.2,5.7,18.1l0.3-0.1
			c-1.5-4.9-3.4-11-5.5-18c0.2-2.7,0.4-5.6,0.5-8.6l6.8-2.1l31.4-9.8l1.5-0.5c0-0.1,0.1-0.2,0.1-0.3L342.1,88z"/>
		<path class="st4" d="M296.4,70.5L296.4,70.5L296.4,70.5l2.7,1.2l7.3,3.2h0.1h0.1l16.1-4.9l4.7-1.5l1.1-0.4
			c0.1,0.3,0.5,0.5,0.8,0.4c0.3-0.1,0.5-0.5,0.4-0.8c-0.1-0.3-0.5-0.5-0.8-0.4c-0.3,0.1-0.5,0.4-0.4,0.8l-1.1,0.3l-4.7,1.4l-16,4.9
			l-7.2-3.2l-2.5-1.1l-4.1-13.2l-0.1-0.2l-0.2,0.1l-10.1,3.2l-2.8,0.9l-0.4,0.1c-0.1-0.1-0.1-0.1-0.2-0.2c-0.2-0.1-0.5-0.2-0.8-0.2
			c-0.2,0-0.3,0.1-0.3,0.1c0,0,0.4,0,0.8,0.3l0.1,0.1c-0.1,0-0.2,0.1-0.2,0.1c0,0,0.1,0,0.3,0l0,0c0.2,0.2,0.3,0.4,0.2,0.7
			c0,0.4-0.3,0.7-0.6,0.8c-0.3,0.1-0.7,0-0.9-0.3c-0.2-0.2-0.3-0.6-0.2-0.8c0.2-0.5,0.6-0.7,0.6-0.7c0-0.1-0.1,0-0.3,0
			c-0.2,0.1-0.4,0.3-0.6,0.6c-0.2,0.4-0.1,0.9,0.1,1.2c0.4,0.6,1.2,0.7,1.8,0.3c0.3-0.2,0.5-0.6,0.5-1c0-0.3-0.1-0.6-0.3-0.8
			l0.4-0.1l2.9-0.8l10-3C293.5,61.2,294.9,65.7,296.4,70.5z"/>
		<path class="st4" d="M343.8,51.5l-7.1-3.8h-0.1h-0.1l-0.5,0.2l-25.8,8l-4.7-1.5h-0.1l0,0l-5.4,1.7H300l0,0c-1.6,3.2-3,5.8-4.1,7.8
			l0,0l0,0c0.6,1.7,1,3.1,1.3,4l0.3,1c0,0.1,0.1,0.2,0.1,0.3c0,0,0-0.1-0.1-0.4s-0.2-0.6-0.3-1l-1.2-3.8c1.1-2,2.4-4.6,4.1-7.7
			l5.2-1.6l4.7,1.5h0.1h0.1l25.8-7.9l0.4-0.1l7.1,3.8h0.1h0.1l1.3-0.4c0-0.1-0.1-0.3-0.1-0.4L343.8,51.5z"/>
		<path class="st4" d="M248.9,14.7L248.9,14.7L248.9,14.7l7.6,4c1.9,6.1,3.7,11.6,5,16.1v0.1h0.1l6.6,1.7h0.1l3.6-1.2l0.9-0.3
			c0.1,0,0.2-0.1,0.3-0.1c-0.1,0-0.2,0-0.3,0.1l-0.9,0.3l-3.6,1.1l-6.4-1.8c-1.4-4.4-3-9.9-4.9-16.1v-0.1h-0.1l-7.5-4l-1.2-3.7
			l-0.4,0.2L248.9,14.7L248.9,14.7z"/>
		<path class="st4" d="M260.5,17.3L260.5,17.3v0.2c1.4,4.3,2.5,8,3.4,10.7c0.4,1.3,0.8,2.3,1,3.1c0.1,0.4,0.2,0.7,0.4,1.1
			c-0.1-0.4-0.2-0.7-0.3-1.1c-0.2-0.8-0.5-1.8-0.9-3.1c-0.8-2.7-1.9-6.4-3.2-10.7c1.4-2.6,2.9-5.5,4.5-8.5l2.4-4.6V4.3V4.2
			c-0.1-0.4-0.2-0.7-0.3-1.1l-0.4,0.1c0.1,0.3,0.2,0.7,0.3,1c-0.8,1.5-1.6,3-2.4,4.5L260.5,17.3z"/>
		<path class="st4" d="M267.8,15.5c0.1-0.3,0-0.7-0.4-0.8c-0.1-0.1-0.3-0.1-0.4,0c-0.3,0.1-0.5,0.5-0.4,0.8c0,0,0,0,0,0
			c0.1,0.3,0.5,0.5,0.8,0.4c0.1,0,0.2-0.1,0.3-0.3c0.2,0.1,0.5,0.3,0.8,0.5c0.8,0.5,2,1.1,3.4,1.9l0.9,2.9c0.7,2.3,1.4,4.3,1.9,5.8
			c0.2,0.8,0.5,1.6,0.9,2.4c-0.1-0.8-0.3-1.7-0.6-2.5c-0.4-1.5-1-3.6-1.7-5.9c-0.3-1.1-0.7-2.1-0.9-3v-0.1h-0.1
			c-1.4-0.7-2.7-1.4-3.6-1.8L267.8,15.5z"/>
		<path class="st4" d="M278.8,30.5L278.8,30.5L278.8,30.5l4.1,2.9h0.1h0.1l19.2-5.9l9.9-3.1h0.1v-0.1l5.6-11.6l-0.4-0.2l-5.5,11.7
			l-9.8,3l-19,5.9l-3.9-2.7l-8.6-27.7V2.5h-0.3v0.2C272.4,9.6,275.4,19.2,278.8,30.5z"/>
		<path class="st4" d="M288.4,35.8l-4.6,1.3l-15,4.6l-0.6-2l-0.1-0.2v-0.1h-0.1l-6.7-2.2h-0.1h-0.1l-12,3.8l-3.5,1.1l-0.9,0.3
			c-0.2,0.1-0.3,0.1-0.3,0.1c0.1,0,0.2,0,0.3,0l0.9-0.3l3.5-1l12-3.6l6.5,2.1l0,0l0.7,2.2l0.1,0.2l0.2-0.1l15.2-4.7l4.5-1.5l1.2-0.4
			c0.1,0,0.3-0.1,0.4-0.2l-0.4,0.1L288.4,35.8z"/>
		<path class="st4" d="M228.4,28.4l4.9,3.2h0.1h0.1l10.8-3.4l1.8,5.6l0.4,1.3c0,0,0,0,0,0.1c0,0.1,0,0,0.1,0l0.1,0.2
			c0.1,0.2,0.1,0.4,0.2,0.5c0-0.2-0.1-0.4-0.1-0.6v-0.1c0.2,0,0.5,0.1,0.7,0.3c0.2,0.2,0.4,0.5,0.3,0.8c0,0.4-0.3,0.7-0.6,0.8
			c-0.3,0.1-0.7,0-0.9-0.3c-0.2-0.2-0.3-0.5-0.2-0.8c0.2-0.5,0.6-0.7,0.6-0.7c0-0.1-0.1,0-0.3,0c-0.3,0.1-0.5,0.3-0.6,0.6
			c-0.2,0.4-0.1,0.9,0.1,1.2c0.4,0.6,1.2,0.7,1.8,0.3c0.3-0.2,0.5-0.6,0.5-1c0-0.4-0.2-0.9-0.6-1.1c-0.2-0.1-0.5-0.2-0.8-0.2h-0.1
			c-0.1-0.4-0.2-0.8-0.4-1.3c-0.4-1.4-1-3.4-1.7-5.8v-0.2h-0.2L233.7,31l-4.8-3.2L228.4,28.4z"/>
	</g>
</g>
<g id="freepik--Device--inject-31">
	<path class="st8" d="M114.3,66.4h142.6c11.4,0,20.6,9.2,20.6,20.6v0v324.5c0,10.2-8.2,18.4-18.4,18.4H114.3
		c-11.2,0-20.3-9.1-20.3-20.3l0,0V86.7C94,75.5,103.1,66.4,114.3,66.4C114.3,66.4,114.3,66.4,114.3,66.4z"/>
	<path class="st1" d="M274.7,86.7v322.8c0,9.6-7.8,17.5-17.5,17.5H114.3c-9.6,0-17.5-7.8-17.5-17.5V86.7c0-9.6,7.8-17.5,17.5-17.5
		h142.9C266.9,69.3,274.7,77.1,274.7,86.7z"/>
	<path class="st8" d="M172.6,80.7c-1.1,0-2-0.9-2-2c0-1.1,0.9-2,2-2h26.3c1.1,0,2,0.9,2,2c0,1.1-0.9,2-2,2c0,0,0,0,0,0H172.6z"/>
	<path class="st8" d="M158.5,80.7c-1.1,0-2-0.9-2-2s0.9-2,2-2c1.1,0,2,0.9,2,2C160.6,79.8,159.6,80.7,158.5,80.7L158.5,80.7z"/>
	<path class="st8" d="M166,80.7c-1.1,0-2-0.9-2-2s0.9-2,2-2c1.1,0,2,0.9,2,2C168.1,79.8,167.2,80.7,166,80.7L166,80.7z"/>
	<path class="st8" d="M213,80.7c-1.1,0-2-0.9-2-2s0.9-2,2-2c1.1,0,2,0.9,2,2C215.1,79.8,214.2,80.7,213,80.7L213,80.7z"/>
	<path class="st8" d="M205.5,80.7c-1.1,0-2-0.9-2-2s0.9-2,2-2c1.1,0,2,0.9,2,2C207.6,79.8,206.6,80.7,205.5,80.7L205.5,80.7z"/>
	<path class="st8" d="M277.6,187.2L277.6,187.2L277.6,187.2v-41.8l0,0l0,0c0.7,0,1.2,0.5,1.2,1.2v0V186
		C278.8,186.7,278.2,187.2,277.6,187.2z"/>
	<path class="st8" d="M93.9,171.1L93.9,171.1L93.9,171.1l0.1,26.5l0,0h-0.1c-0.7,0-1.2-0.5-1.2-1.2l0,0v-24.1
		C92.7,171.7,93.3,171.1,93.9,171.1z"/>
	<path class="st8" d="M93.9,136.6L93.9,136.6L93.9,136.6l0.1,26.5l0,0h-0.1c-0.7,0-1.2-0.5-1.2-1.2l0,0v-24.2
		C92.8,137.1,93.3,136.6,93.9,136.6z"/>
	<path class="st8" d="M93.9,110.6L93.9,110.6L93.9,110.6v12.3l0,0l0,0c-0.6,0-1-0.5-1-1v-10.2C92.9,111.1,93.4,110.6,93.9,110.6z"/>
	<path class="st5" d="M258.9,72.3h-31.8c-2.4,0-4.5,1.6-5.2,3.9l-2,7c-0.7,2.6-3.1,4.4-5.8,4.4h-54.8c-2.7,0-5.1-1.8-5.8-4.4l-2-7
		c-0.7-2.3-2.8-3.9-5.2-3.9h-32.7c-6.5,0-11.7,5.2-11.7,11.7v325.4c0,7.3,6,13.3,13.3,13.3c0,0,0,0,0,0h144.5
		c6.5,0,11.7-5.2,11.7-11.7V85C271.5,78,265.8,72.4,258.9,72.3z"/>
	<rect x="102" y="270.1" class="st9" width="169.5" height="41.1"/>
	<rect x="102" y="349.4" class="st9" width="169.5" height="41.1"/>
	<path class="st0" d="M138.6,159.8h101.3c10.5,0,18.9,8.5,18.9,18.9v59.6c0,10.5-8.5,18.9-18.9,18.9H138.6
		c-10.5,0-18.9-8.5-18.9-18.9v-59.6C119.6,168.3,128.1,159.8,138.6,159.8z"/>
	<g class="st10">
		<path class="st4" d="M138.6,159.8h101.3c10.5,0,18.9,8.5,18.9,18.9v59.6c0,10.5-8.5,18.9-18.9,18.9H138.6
			c-10.5,0-18.9-8.5-18.9-18.9v-59.6C119.6,168.3,128.1,159.8,138.6,159.8z"/>
	</g>
	<path class="st0" d="M122.7,144.7h130.4c5.7,0,10.3,4.6,10.3,10.3v85.2c0,5.7-4.6,10.3-10.3,10.3H122.7c-5.7,0-10.3-4.6-10.3-10.3
		V155C112.4,149.3,117,144.7,122.7,144.7z"/>
	<path class="st11" d="M123.3,301.1L123.3,301.1c-4.9,0-8.8-4-8.8-8.8l0,0c0-4.9,4-8.8,8.8-8.8l0,0c4.9,0,8.8,4,8.8,8.8l0,0
		C132.1,297.2,128.2,301.1,123.3,301.1z"/>
	<polygon class="st0" points="119.7,291.6 123.3,286.6 126.5,291.7 123.1,290.5 	"/>
	<polygon class="st0" points="119.6,292.4 123.1,294.4 126.6,292.6 123.1,291.1 	"/>
	<path class="st0" d="M119.6,293.3c0.1,0.1,3.5,4.5,3.5,4.5l3.5-4.5l-3.5,1.9L119.6,293.3z"/>
	<path class="st11" d="M124.4,337.8L124.4,337.8c-4.9,0-8.8-4-8.8-8.8l0,0c0-4.9,4-8.8,8.8-8.8l0,0c4.9,0,8.8,4,8.8,8.8l0,0
		C133.2,333.9,129.3,337.8,124.4,337.8z"/>
	<path class="st11" d="M124.4,377L124.4,377c-4.9,0-8.8-4-8.8-8.8l0,0c0-4.9,4-8.8,8.8-8.8l0,0c4.9,0,8.8,4,8.8,8.8l0,0
		C133.2,373,129.3,377,124.4,377z"/>
	<path d="M165.2,293.3c0,0.2-5.8,0.3-12.9,0.3s-12.9-0.2-12.9-0.3s5.8-0.3,12.9-0.3S165.2,293.1,165.2,293.3z"/>
	<path class="st11" d="M194.2,297.8c0,0.2-12.2,0.3-27.3,0.3s-27.3-0.1-27.3-0.3c0-0.2,12.2-0.3,27.3-0.3S194.2,297.7,194.2,297.8z"
		/>
	<path d="M167.2,328.6c0,0.2-5.8,0.3-12.9,0.3s-12.9-0.1-12.9-0.3s5.8-0.3,12.9-0.3C161.4,328.3,167.2,328.4,167.2,328.6z"/>
	<path class="st11" d="M196.1,333.2c0,0.2-12.2,0.3-27.3,0.3s-27.3-0.1-27.3-0.3c0-0.2,12.2-0.3,27.3-0.3S196.1,333,196.1,333.2z"/>
	<path d="M169.3,367.6c0,0.2-5.8,0.3-12.9,0.3c-7.1,0-12.9-0.1-12.9-0.3s5.8-0.3,12.9-0.3S169.3,367.5,169.3,367.6z"/>
	<path class="st11" d="M198.2,372.2c0,0.2-12.2,0.3-27.3,0.3c-15.1,0-27.3-0.1-27.3-0.3c0-0.2,12.2-0.3,27.3-0.3
		S198.2,372,198.2,372.2z"/>
	<path class="st0" d="M122.7,324.6l-1.1,4.5c-0.5,0.1-0.9,0.4-1,0.8c-0.2,0.3-0.2,0.7-0.2,1.1l0.7-0.3l-0.5,2.5h6.9l0.5-1.9h-4.1
		l0.3-1.8c0.7-0.3,1.2-0.9,1.2-1.7l-0.8,0.1l0.8-3.3L122.7,324.6z"/>
	<path d="M123.9,217.2c-0.2,0-0.3-11.8-0.3-26.4s0.1-26.3,0.3-26.3c0.2,0,0.3,11.8,0.3,26.3S124,217.2,123.9,217.2z"/>
	<path d="M140.3,217.2c-0.2,0-0.3-11.8-0.3-26.4s0.1-26.3,0.3-26.3s0.3,11.8,0.3,26.3S140.4,217.2,140.3,217.2z"/>
	<path d="M156.7,217.2c-0.2,0-0.3-11.8-0.3-26.4s0.1-26.3,0.3-26.3c0.2,0,0.3,11.8,0.3,26.3S156.9,217.2,156.7,217.2z"/>
	<path d="M173.1,217.2c-0.2,0-0.3-11.8-0.3-26.4s0.1-26.3,0.3-26.3s0.3,11.8,0.3,26.3S173.3,217.2,173.1,217.2z"/>
	<path d="M189.6,217.2c-0.2,0-0.3-11.8-0.3-26.4s0.1-26.3,0.3-26.3c0.2,0,0.3,11.8,0.3,26.3S189.7,217.2,189.6,217.2z"/>
	<path d="M206,217.2c-0.2,0-0.3-11.8-0.3-26.4s0.1-26.3,0.3-26.3c0.2,0,0.3,11.8,0.3,26.3S206.1,217.2,206,217.2z"/>
	<path d="M222.4,217.2c-0.2,0-0.3-11.8-0.3-26.4s0.1-26.3,0.3-26.3s0.3,11.8,0.3,26.3S222.6,217.2,222.4,217.2z"/>
	<path d="M238.8,217.2c-0.2,0-0.3-11.8-0.3-26.4s0.1-26.3,0.3-26.3c0.2,0,0.3,11.8,0.3,26.3S239,217.2,238.8,217.2z"/>
	<path d="M255.3,217.2c-0.2,0-0.3-11.8-0.3-26.4s0.1-26.3,0.3-26.3s0.3,11.8,0.3,26.3S255.4,217.2,255.3,217.2z"/>
	<path class="st4" d="M125.5,230.8v1.2h-1.1v-1.2c-1,0-1.9-0.3-2.7-0.9l0.6-1.3c0.6,0.4,1.4,0.7,2.1,0.8v-1.8
		c-1.2-0.3-2.6-0.7-2.6-2.2c0-1.2,0.8-2.1,2.6-2.3v-1.2h1.1v1.2c0.8,0,1.5,0.3,2.2,0.7l-0.5,1.3c-0.5-0.3-1.1-0.5-1.7-0.6v1.9
		c1.2,0.3,2.5,0.7,2.5,2.2C128,229.6,127.2,230.6,125.5,230.8z M124.4,226v-1.5c-0.6,0.1-0.8,0.5-0.8,0.8
		C123.6,225.6,123.9,225.9,124.4,226L124.4,226z M126.3,228.6c0-0.4-0.3-0.6-0.8-0.8v1.5C126,229.3,126.2,229,126.3,228.6
		L126.3,228.6z"/>
	<path class="st4" d="M137.5,229.3v1.4h-5.8v-1.1l2.9-2.8c0.7-0.6,0.8-1,0.8-1.4c0-0.6-0.4-0.9-1.2-0.9c-0.6,0-1.2,0.3-1.6,0.8
		l-1.3-0.8c0.7-0.9,1.8-1.5,3-1.4c1.7,0,2.8,0.9,2.8,2.2c0,1-0.5,1.9-1.3,2.4l-1.8,1.7L137.5,229.3z"/>
	<path class="st4" d="M138.2,226.9c0-2.5,1.4-3.9,3.3-3.9s3.3,1.4,3.3,3.9s-1.4,3.9-3.3,3.9S138.2,229.4,138.2,226.9z M143,226.9
		c0-1.7-0.6-2.4-1.5-2.4c-0.9,0-1.5,0.7-1.5,2.4s0.6,2.4,1.5,2.4C142.4,229.4,143,228.7,143,226.9z"/>
	<path class="st4" d="M147.6,229.8c0,0.4-0.1,0.8-0.3,1.1l-0.6,1.6h-1.1l0.5-1.7c-0.4-0.2-0.6-0.5-0.6-0.9c0.2-0.6,0.8-0.9,1.4-0.7
		C147.2,229.1,147.4,229.4,147.6,229.8L147.6,229.8z"/>
	<path class="st4" d="M154.2,229.3v1.4h-5.8v-1.1l2.9-2.8c0.7-0.6,0.8-1,0.8-1.4c0-0.6-0.4-0.9-1.2-0.9c-0.6,0-1.2,0.3-1.6,0.8
		l-1.3-0.8c0.7-0.9,1.8-1.5,3-1.4c1.7,0,2.8,0.9,2.8,2.2c0,1-0.5,1.9-1.3,2.4l-1.8,1.7L154.2,229.3z"/>
	<path class="st4" d="M160.5,228.4c0,1.3-1,2.5-3.2,2.5c-1,0-2-0.3-2.9-0.8l0.7-1.4c0.6,0.5,1.4,0.7,2.2,0.7c0.9,0,1.4-0.4,1.4-1
		s-0.4-0.9-1.4-0.9h-0.8v-1.2l1.6-1.8h-3.2v-1.4h5.3v1.1l-1.7,2C159.6,226.3,160.5,227.2,160.5,228.4z"/>
	<path class="st4" d="M168.3,229.1h-1.3v1.6h-1.7v-1.6h-4.1v-1.2l3.6-4.8h1.8l-3.3,4.6h2.1v-1.4h1.6v1.4h1.2L168.3,229.1z"/>
	<path class="st4" d="M169,229.8c0.2-0.6,0.8-0.9,1.4-0.7c0.3,0.1,0.6,0.4,0.7,0.7c0.2,0.6-0.1,1.2-0.7,1.4s-1.2-0.1-1.4-0.7
		C168.9,230.2,168.9,230,169,229.8z"/>
	<path class="st4" d="M171.8,226.9c0-2.5,1.4-3.9,3.3-3.9s3.3,1.4,3.3,3.9s-1.4,3.9-3.3,3.9S171.8,229.4,171.8,226.9z M176.5,226.9
		c0-1.7-0.6-2.4-1.5-2.4c-0.9,0-1.5,0.7-1.5,2.4s0.6,2.4,1.5,2.4C175.9,229.4,176.5,228.7,176.5,226.9L176.5,226.9z"/>
	<path class="st4" d="M179.2,226.9c0-2.5,1.4-3.9,3.3-3.9s3.3,1.4,3.3,3.9s-1.4,3.9-3.3,3.9S179.2,229.4,179.2,226.9z M183.9,226.9
		c0-1.7-0.6-2.4-1.5-2.4c-0.9,0-1.5,0.7-1.5,2.4s0.6,2.4,1.5,2.4C183.3,229.4,183.9,228.7,183.9,226.9L183.9,226.9z"/>
	<path class="st4" d="M124.1,239.1h-1v1h-0.3v-1h-1v-0.3h1v-1h0.3v1h1V239.1z"/>
	<path class="st4" d="M126.2,240.8v0.6h-0.3v-0.6c-0.5,0-0.9-0.2-1.3-0.5l0.2-0.3c0.3,0.3,0.7,0.4,1.1,0.5v-1.4
		c-0.6-0.1-1.2-0.3-1.2-1c0-0.5,0.4-1,1.2-1v-0.6h0.3v0.6c0.4,0,0.8,0.1,1.1,0.3l-0.1,0.3c-0.3-0.2-0.6-0.3-0.9-0.3v1.4
		c0.6,0.1,1.2,0.3,1.2,1C127.4,240.3,127,240.8,126.2,240.8z M125.9,238.7v-1.3c-0.6,0-0.8,0.3-0.8,0.7
		C125.1,238.4,125.5,238.6,125.9,238.7L125.9,238.7z M127,239.8c0-0.4-0.4-0.6-0.8-0.7v1.3C126.8,240.4,127,240.1,127,239.8
		L127,239.8z"/>
	<path class="st4" d="M128.9,237v3.7h-0.4v-3.4h-0.9V237H128.9z"/>
	<path class="st4" d="M130.4,240.5c0,0.1,0,0.2-0.1,0.3l-0.2,0.7h-0.3l0.2-0.8c-0.1,0-0.2-0.2-0.2-0.3c0-0.2,0.1-0.3,0.3-0.3
		c0,0,0,0,0,0C130.3,240.2,130.4,240.3,130.4,240.5C130.4,240.5,130.4,240.5,130.4,240.5z"/>
	<path class="st4" d="M133.6,240.4v0.3h-2.6v-0.3l1.6-1.5c0.4-0.4,0.5-0.7,0.5-0.9c0-0.4-0.3-0.7-0.9-0.7c-0.4,0-0.8,0.1-1,0.4
		l-0.3-0.2c0.3-0.4,0.8-0.6,1.3-0.5c0.8,0,1.2,0.4,1.2,1c0,0.5-0.2,0.9-0.6,1.2l-1.3,1.2L133.6,240.4z"/>
	<path class="st4" d="M136.7,237v0.3l-1.6,3.5h-0.4l1.5-3.4h-1.9v0.7H134V237H136.7z"/>
	<path class="st4" d="M138.3,237v3.7h-0.4v-3.4H137V237H138.3z"/>
	<path class="st4" d="M139.2,240.5c0-0.2,0.1-0.3,0.3-0.3c0,0,0,0,0,0c0.2,0,0.3,0.1,0.3,0.3c0,0,0,0,0,0c0,0.2-0.1,0.3-0.3,0.3
		c0,0,0,0,0,0C139.3,240.8,139.2,240.7,139.2,240.5C139.2,240.5,139.2,240.5,139.2,240.5z"/>
	<path class="st4" d="M142.8,239.7c0,0.6-0.5,1.1-1.4,1.1c-0.5,0-1-0.2-1.3-0.5l0.2-0.3c0.3,0.3,0.7,0.4,1.1,0.4c0.6,0,1-0.3,1-0.8
		s-0.3-0.8-1.2-0.8h-0.8l0.2-1.9h2.1v0.3h-1.7l-0.1,1.2h0.5C142.4,238.6,142.8,239,142.8,239.7z"/>
	<path class="st4" d="M144.4,237v3.7H144v-3.4h-0.9V237H144.4z"/>
	<path class="st4" d="M148.4,240.6c-0.2,0.1-0.4,0.2-0.6,0.2c-0.4,0-0.8-0.3-0.8-0.7c0-0.1,0-0.1,0-0.2v-1.7h-0.5V238h0.5v-0.6h0.4
		v0.6h0.9v0.3h-0.9v1.7c0,0.2,0.1,0.5,0.4,0.5c0,0,0.1,0,0.1,0c0.2,0,0.3,0,0.5-0.2L148.4,240.6z"/>
	<path class="st4" d="M148.7,239.4c0-0.8,0.6-1.4,1.4-1.4c0.8,0,1.4,0.6,1.4,1.4c0,0.8-0.6,1.4-1.4,1.4
		C149.4,240.8,148.7,240.2,148.7,239.4C148.7,239.4,148.7,239.4,148.7,239.4z M151.2,239.4c0-0.6-0.5-1.1-1.1-1.1s-1.1,0.5-1.1,1.1
		s0.5,1.1,1.1,1.1c0.6,0,1.1-0.4,1.1-1C151.2,239.5,151.2,239.4,151.2,239.4z"/>
	<path class="st4" d="M154.9,236.8v4h-0.4v-0.6c-0.2,0.4-0.7,0.6-1.1,0.6c-0.8,0-1.4-0.6-1.4-1.4s0.6-1.4,1.4-1.4l0,0
		c0.4,0,0.9,0.2,1.1,0.6v-1.7H154.9z M154.5,239.4c0-0.6-0.5-1.1-1.1-1.1c-0.6,0-1.1,0.5-1.1,1.1c0,0.6,0.5,1.1,1.1,1.1
		c0,0,0,0,0.1,0C154.1,240.5,154.5,240,154.5,239.4C154.5,239.4,154.5,239.4,154.5,239.4z"/>
	<path class="st4" d="M158.1,239v1.7h-0.4v-0.5c-0.2,0.3-0.6,0.5-1,0.5c-0.6,0-1-0.3-1-0.8c0-0.5,0.3-0.8,1.1-0.8h0.9V239
		c0-0.5-0.3-0.8-0.8-0.8c-0.3,0-0.7,0.1-0.9,0.3l-0.2-0.3c0.3-0.2,0.7-0.4,1.1-0.4c0.5-0.1,1.1,0.3,1.2,0.8
		C158.1,238.9,158.1,238.9,158.1,239z M157.7,239.9v-0.5h-0.9c-0.5,0-0.7,0.2-0.7,0.5s0.3,0.5,0.7,0.5
		C157.2,240.5,157.6,240.3,157.7,239.9L157.7,239.9z"/>
	<path class="st4" d="M161.4,238l-1.4,3.2c-0.2,0.6-0.5,0.7-0.9,0.7c-0.3,0-0.5-0.1-0.7-0.3l0.2-0.3c0.1,0.1,0.3,0.2,0.5,0.2
		c0.3,0,0.4-0.1,0.6-0.5l0.1-0.3l-1.3-2.8h0.4l1.1,2.4l1.1-2.4H161.4z"/>
	<path class="st1" d="M216.7,294.8v1.1h-0.5v-1.1c-0.8,0-1.6-0.3-2.2-0.9l0.3-0.5c0.6,0.5,1.2,0.8,2,0.8v-2.5
		c-1-0.3-2.1-0.6-2.1-1.8c0-0.9,0.7-1.7,2.1-1.8V287h0.4v1.1c0.7,0,1.3,0.2,1.9,0.6l-0.2,0.6c-0.5-0.3-1.1-0.5-1.7-0.6v2.5
		c1.1,0.3,2.2,0.6,2.2,1.8C218.9,293.9,218.2,294.7,216.7,294.8z M216.2,291.1v-2.3c-1,0.1-1.4,0.6-1.4,1.2S215.5,290.9,216.2,291.1
		L216.2,291.1z M218.2,293c0-0.8-0.7-1-1.5-1.2v2.3C217.8,294.1,218.2,293.6,218.2,293L218.2,293z"/>
	<path class="st1" d="M224.1,288.2v6.6h-0.7v-6h-1.6v-0.6L224.1,288.2z"/>
	<path class="st1" d="M225.7,291.5c0-2.1,1.1-3.3,2.6-3.3c1.5,0,2.6,1.2,2.6,3.3c0,2.1-1.1,3.3-2.6,3.3
		C226.8,294.8,225.7,293.5,225.7,291.5z M230.2,291.5c0-1.8-0.8-2.7-1.9-2.7s-1.9,1-1.9,2.7s0.8,2.7,1.9,2.7
		S230.2,293.2,230.2,291.5z"/>
	<path class="st1" d="M232.8,294.3c0,0.2,0,0.4-0.1,0.5l-0.4,1.3h-0.5l0.3-1.4c-0.3-0.1-0.4-0.4-0.3-0.6s0.4-0.4,0.6-0.3
		C232.6,293.8,232.8,294,232.8,294.3L232.8,294.3z"/>
	<path class="st1" d="M238.2,292.9c0,1.1-0.8,1.9-2.4,1.9c-0.9,0-1.7-0.3-2.4-0.8l0.3-0.5c0.6,0.5,1.3,0.8,2,0.8
		c1.1,0,1.7-0.5,1.7-1.3s-0.6-1.3-1.8-1.3h-0.5v-0.5l1.8-2.3h-3.3v-0.6h4.2v0.5l-1.9,2.3C237.5,291.1,238.2,291.8,238.2,292.9z"/>
	<path class="st1" d="M243.5,292.8c0,1.1-0.8,2-2.4,2c-0.9,0-1.7-0.3-2.3-0.8l0.3-0.5c0.5,0.5,1.3,0.8,2,0.8c1.1,0,1.7-0.6,1.7-1.3
		s-0.5-1.4-2.2-1.4h-1.4l0.3-3.3h3.6v0.6h-3l-0.2,2.1h0.8C242.8,290.9,243.5,291.6,243.5,292.8z"/>
	<path class="st1" d="M249.3,292.8c0,1.1-0.9,2-2.1,2c0,0-0.1,0-0.1,0c-1.8,0-2.7-1.2-2.7-3.3s1.2-3.4,3-3.4c0.5,0,1.1,0.1,1.6,0.4
		l-0.3,0.5c-0.4-0.2-0.8-0.3-1.3-0.3c-1.4,0-2.3,0.9-2.3,2.7c0,0.2,0,0.4,0,0.5c0.4-0.7,1.2-1.2,2-1.1c1.1-0.1,2.1,0.7,2.2,1.7
		C249.3,292.6,249.3,292.7,249.3,292.8z M248.7,292.8c0-0.9-0.6-1.4-1.7-1.4c-0.8-0.1-1.6,0.5-1.7,1.3c0,0,0,0.1,0,0.1
		c0,0.7,0.6,1.4,1.7,1.4c0.8,0.1,1.5-0.5,1.6-1.3C248.7,292.9,248.7,292.8,248.7,292.8L248.7,292.8z"/>
	<path class="st1" d="M250.2,294.3c0-0.3,0.2-0.5,0.4-0.6s0.5,0.2,0.6,0.4c0,0,0,0.1,0,0.1c0,0.3-0.2,0.5-0.4,0.6
		c-0.3,0-0.5-0.2-0.6-0.4C250.2,294.4,250.2,294.3,250.2,294.3L250.2,294.3z"/>
	<path class="st1" d="M252.1,291.5c0-2.1,1.1-3.3,2.6-3.3c1.5,0,2.6,1.2,2.6,3.3c0,2.1-1.1,3.3-2.6,3.3S252.1,293.5,252.1,291.5z
		 M256.7,291.5c0-1.8-0.8-2.7-1.9-2.7c-1.1,0-1.9,1-1.9,2.7s0.8,2.7,1.9,2.7C255.9,294.2,256.7,293.2,256.7,291.5z"/>
	<path class="st1" d="M258.3,291.5c0-2.1,1.1-3.3,2.6-3.3c1.5,0,2.6,1.2,2.6,3.3c0,2.1-1.1,3.3-2.6,3.3
		C259.4,294.8,258.3,293.5,258.3,291.5z M262.9,291.5c0-1.8-0.8-2.7-1.9-2.7c-1.1,0-1.9,1-1.9,2.7s0.8,2.7,1.9,2.7
		C262.1,294.2,262.9,293.2,262.9,291.5L262.9,291.5z"/>
	<path class="st1" d="M231.5,327.3v1.1H231v-1.1c-0.8,0-1.6-0.3-2.2-0.8l0.3-0.5c0.5,0.5,1.2,0.8,2,0.8v-2.5c-1-0.3-2.1-0.6-2.1-1.8
		c0-0.9,0.7-1.7,2.1-1.8v-1.1h0.5v1.1c0.7,0,1.3,0.2,1.9,0.6l-0.2,0.6c-0.5-0.3-1.1-0.5-1.7-0.6v2.5c1.1,0.3,2.2,0.6,2.2,1.8
		C233.7,326.5,233,327.3,231.5,327.3z M231,323.6v-2.3c-1,0.1-1.4,0.6-1.4,1.2S230.2,323.4,231,323.6L231,323.6z M233,325.6
		c0-0.7-0.7-1-1.5-1.2v2.3C232.5,326.7,233,326.2,233,325.6L233,325.6z"/>
	<path class="st1" d="M238.9,320.7v6.6h-0.7v-6h-1.5v-0.6L238.9,320.7z"/>
	<path class="st1" d="M240.5,324c0-2.1,1.1-3.3,2.6-3.3s2.6,1.2,2.6,3.3c0,2.1-1.1,3.3-2.6,3.3S240.5,326.1,240.5,324z M245,324
		c0-1.8-0.8-2.7-1.9-2.7s-1.9,1-1.9,2.7c0,1.8,0.8,2.7,1.9,2.7S245,325.8,245,324z"/>
	<path class="st1" d="M250.9,325.4c0,1.1-0.8,1.9-2.4,1.9c-0.9,0-1.7-0.3-2.4-0.8l0.3-0.5c0.6,0.5,1.3,0.8,2,0.8
		c1.1,0,1.7-0.5,1.7-1.3c0-0.8-0.6-1.3-1.8-1.3H248v-0.5l1.8-2.3h-3.3v-0.6h4.2v0.5l-1.9,2.3C250.2,323.6,250.9,324.4,250.9,325.4z"
		/>
	<path class="st1" d="M252.9,326.8c0,0.2-0.1,0.4-0.1,0.6l-0.4,1.3h-0.5l0.3-1.4c-0.2-0.1-0.4-0.3-0.3-0.5c0-0.3,0.2-0.5,0.5-0.5
		c0,0,0,0,0,0C252.7,326.3,252.9,326.5,252.9,326.8C252.9,326.8,252.9,326.8,252.9,326.8z"/>
	<path class="st1" d="M258.3,325.4c0,1.1-0.8,2-2.4,2c-0.9,0-1.7-0.3-2.4-0.8l0.3-0.5c0.5,0.5,1.3,0.8,2,0.8c1.1,0,1.7-0.6,1.7-1.3
		s-0.5-1.4-2.2-1.4H254l0.3-3.3h3.6v0.6h-3l-0.2,2.1h0.8C257.6,323.4,258.3,324.2,258.3,325.4z"/>
	<path class="st1" d="M264.1,325.3c0,1.1-0.9,2-2.1,2c0,0-0.1,0-0.1,0c-1.7,0-2.7-1.2-2.7-3.3c0-2.2,1.2-3.4,3-3.4
		c0.5,0,1.1,0.1,1.6,0.4l-0.3,0.6c-0.4-0.2-0.8-0.3-1.3-0.3c-1.4,0-2.3,0.9-2.3,2.7c0,0.1,0,0.3,0,0.5c0.4-0.7,1.2-1.2,2-1.1
		c1.1-0.1,2.1,0.7,2.2,1.8C264.1,325.2,264.1,325.3,264.1,325.3z M263.5,325.3c0-0.9-0.6-1.4-1.7-1.4c-0.8-0.1-1.6,0.5-1.7,1.3
		c0,0,0,0.1,0,0.1c0,0.7,0.6,1.4,1.7,1.4c0.8,0.1,1.5-0.5,1.6-1.3C263.4,325.5,263.5,325.4,263.5,325.3L263.5,325.3z"/>
	<path class="st8" d="M243.4,299v0.7l-1.8,4.2h-1.2l1.8-4h-1.6v0.8h-1V299H243.4z"/>
	<path class="st8" d="M243.5,303.2c0-0.4,0.3-0.7,0.7-0.7c0,0,0,0,0,0c0.4,0,0.7,0.3,0.7,0.6c0,0,0,0,0,0c0,0.4-0.3,0.7-0.6,0.7
		c0,0,0,0,0,0C243.9,303.9,243.5,303.6,243.5,303.2C243.5,303.2,243.5,303.2,243.5,303.2z"/>
	<path class="st8" d="M249.1,302.3c0,0.9-0.6,1.6-2,1.6c-0.7,0-1.3-0.2-1.9-0.5l0.5-0.9c0.4,0.3,0.9,0.4,1.4,0.4
		c0.6,0,0.9-0.2,0.9-0.6s-0.3-0.6-1.1-0.6h-1.3l0.3-2.7h3v0.9h-2l-0.1,0.9h0.4C248.5,300.8,249.1,301.5,249.1,302.3z"/>
	<path class="st8" d="M253.7,302.5c0,0.9-0.8,1.5-2.1,1.5c-1.2,0-2.1-0.6-2.1-1.5c0-0.5,0.3-1,0.7-1.2c-0.4-0.2-0.6-0.6-0.6-1
		c0-0.9,0.8-1.4,1.9-1.4s1.9,0.5,1.9,1.4c0,0.4-0.2,0.8-0.6,1C253.4,301.5,253.7,302,253.7,302.5z M252.6,302.5
		c0-0.4-0.4-0.7-0.9-0.7c-0.6,0-0.9,0.3-0.9,0.7s0.4,0.7,0.9,0.7C252.2,303.2,252.5,302.8,252.6,302.5L252.6,302.5z M250.9,300.3
		c0,0.4,0.3,0.6,0.8,0.6s0.8-0.2,0.8-0.6s-0.3-0.6-0.8-0.6S250.9,300,250.9,300.3z"/>
	<path class="st8" d="M254,300.3c0.1-0.7,0.7-1.2,1.3-1.1c0.7,0.1,1.2,0.7,1.1,1.3c-0.1,0.6-0.6,1.1-1.2,1.1c-0.7,0-1.2-0.5-1.2-1.2
		C254,300.4,254,300.3,254,300.3z M255.8,300.3c0-0.5-0.2-0.8-0.5-0.8c-0.3,0-0.5,0.3-0.5,0.8s0.2,0.8,0.5,0.8
		S255.8,300.8,255.8,300.3z M258.2,299h0.8l-3.3,4.9h-0.8L258.2,299z M257.4,302.6c0.1-0.7,0.7-1.2,1.3-1.1c0.7,0.1,1.2,0.7,1.1,1.3
		c-0.1,0.6-0.6,1.1-1.2,1.1c-0.7,0-1.2-0.5-1.2-1.2C257.3,302.7,257.3,302.6,257.4,302.6z M259.1,302.6c0-0.5-0.2-0.8-0.5-0.8
		s-0.5,0.3-0.5,0.8s0.2,0.8,0.5,0.8C258.9,303.3,259.1,303.1,259.1,302.6L259.1,302.6z"/>
	<path class="st0" d="M236.3,333.7h2v0.9h-2V333.7z"/>
	<path class="st0" d="M242.9,334.5c0,0.9-0.8,1.7-1.7,1.6c0,0-0.1,0-0.1,0c-1.3,0-2.2-0.8-2.2-2.4c-0.1-1.3,0.8-2.5,2.1-2.6
		c0.1,0,0.3,0,0.4,0c0.5,0,1,0.1,1.4,0.3l-0.4,0.8c-0.3-0.2-0.6-0.3-0.9-0.2c-0.7,0-1.3,0.5-1.4,1.2c0,0.1,0,0.1,0,0.2
		c0.3-0.3,0.8-0.5,1.2-0.4c0.9-0.1,1.6,0.5,1.7,1.4C242.9,334.5,242.9,334.5,242.9,334.5z M241.8,334.6c0-0.4-0.3-0.7-0.7-0.7
		c0,0-0.1,0-0.1,0c-0.4,0-0.8,0.3-0.8,0.7c0,0,0,0,0,0c0,0.4,0.3,0.7,0.9,0.7c0.4,0.1,0.8-0.2,0.8-0.6
		C241.8,334.7,241.8,334.6,241.8,334.6L241.8,334.6z"/>
	<path class="st0" d="M243.4,335.4c0-0.4,0.4-0.6,0.8-0.6c0.3,0,0.6,0.3,0.6,0.6c0,0.4-0.2,0.7-0.6,0.8c-0.4,0-0.7-0.2-0.8-0.6
		C243.4,335.6,243.4,335.5,243.4,335.4z"/>
	<path class="st0" d="M249,335.2v0.9h-3.7v-0.7l1.9-1.8c0.4-0.4,0.5-0.7,0.5-0.9s-0.3-0.6-0.8-0.6c-0.4,0-0.8,0.2-1,0.5L245,332
		c0.5-0.6,1.2-1,2-0.9c1.1,0,1.8,0.6,1.8,1.4c0,0.6-0.3,1.2-0.8,1.5l-1.1,1.1L249,335.2z"/>
	<path class="st0" d="M253.5,334.7c0,0.9-0.8,1.5-2.1,1.5c-1.2,0-2.1-0.6-2.1-1.5c0-0.5,0.3-0.9,0.7-1.1c-0.4-0.2-0.6-0.6-0.6-1
		c0-0.9,0.8-1.4,1.9-1.4c1.1,0,1.9,0.5,1.9,1.4c0,0.4-0.2,0.8-0.6,1C253.2,333.8,253.5,334.2,253.5,334.7z M252.4,334.7
		c0-0.4-0.4-0.7-0.9-0.7s-0.9,0.3-0.9,0.7c0,0.4,0.3,0.7,0.9,0.7S252.4,335.1,252.4,334.7L252.4,334.7z M250.8,332.6
		c0,0.4,0.3,0.6,0.8,0.6s0.8-0.2,0.8-0.6s-0.3-0.6-0.8-0.6S250.7,332.2,250.8,332.6L250.8,332.6z"/>
	<path class="st0" d="M253.9,332.5c0.1-0.7,0.7-1.1,1.3-1.1c0.7,0.1,1.1,0.7,1.1,1.3c-0.1,0.6-0.6,1.1-1.2,1.1
		c-0.7,0-1.2-0.5-1.2-1.2C253.9,332.6,253.9,332.5,253.9,332.5z M255.6,332.5c0-0.5-0.2-0.8-0.5-0.8c-0.3,0-0.5,0.3-0.5,0.8
		c0,0.5,0.2,0.8,0.5,0.8S255.6,333,255.6,332.5z M258,331.2h0.8l-3.3,4.9h-0.8L258,331.2z M257.2,334.8c0.1-0.7,0.7-1.2,1.3-1.1
		c0.7,0.1,1.2,0.7,1.1,1.3c-0.1,0.6-0.6,1.1-1.2,1.1c-0.7,0-1.2-0.5-1.2-1.2C257.2,334.9,257.2,334.8,257.2,334.8z M258.9,334.8
		c0-0.5-0.2-0.8-0.5-0.8c-0.3,0-0.5,0.3-0.5,0.8c0,0.5,0.2,0.8,0.5,0.8C258.7,335.6,258.9,335.3,258.9,334.8z"/>
	<path class="st1" d="M116.5,122.7c0.1-2,1.9-3.5,3.9-3.4c0.9,0.1,1.8,0.5,2.4,1.2l-1,0.9c-0.4-0.5-1-0.8-1.7-0.8
		c-1.2,0.1-2,1.1-2,2.3c0.1,1,0.9,1.9,2,2c0.6,0,1.3-0.3,1.7-0.8l1,0.9c-1.4,1.5-3.6,1.6-5.1,0.2C117,124.5,116.6,123.7,116.5,122.7
		L116.5,122.7z"/>
	<path class="st1" d="M126.9,120.8v1.4h-0.3c-0.7-0.1-1.3,0.4-1.4,1.1c0,0.1,0,0.2,0,0.3v2.4h-1.5v-5.1h1.4v0.7
		C125.6,121,126.3,120.8,126.9,120.8z"/>
	<path class="st1" d="M133,120.9l-2.3,5.4c-0.2,1-1.1,1.6-2.1,1.6c-0.5,0-1-0.1-1.4-0.5l0.5-1c0.2,0.2,0.5,0.3,0.8,0.3
		c0.4,0,0.6-0.2,0.8-0.6l0,0l-2.2-5.1h1.5l1.4,3.4l1.4-3.4L133,120.9z"/>
	<path class="st1" d="M139.1,123.4c0.1,1.4-1,2.5-2.3,2.6c-0.1,0-0.1,0-0.2,0c-0.6,0-1.1-0.2-1.5-0.6v2.4h-1.5v-6.9h1.4v0.6
		c0.4-0.5,1-0.7,1.6-0.7c1.4,0,2.5,1.1,2.5,2.4C139.1,123.3,139.1,123.3,139.1,123.4z M137.7,123.4c-0.1-0.7-0.7-1.2-1.4-1.2
		c-0.7,0.1-1.2,0.7-1.2,1.4c0.1,0.7,0.6,1.2,1.3,1.2c0.7,0,1.3-0.6,1.3-1.3C137.7,123.5,137.7,123.4,137.7,123.4L137.7,123.4z"/>
	<path class="st1" d="M143.4,125.7c-0.4,0.2-0.8,0.3-1.2,0.3c-0.9,0.1-1.8-0.5-1.9-1.4c0-0.1,0-0.3,0-0.4v-2.1h-0.8V121h0.8v-1.2
		h1.5v1.2h1.3v1.1h-1.3v2.1c0,0.3,0.2,0.6,0.5,0.7c0,0,0.1,0,0.1,0c0.2,0,0.4-0.1,0.6-0.2L143.4,125.7z"/>
	<path class="st1" d="M143.7,123.4c-0.1-1.5,1.1-2.9,2.6-3c1.5-0.1,2.9,1.1,3,2.6c0.1,1.5-1.1,2.9-2.6,3c-0.1,0-0.1,0-0.2,0
		c-1.4,0.1-2.7-1-2.8-2.4C143.7,123.5,143.7,123.5,143.7,123.4z M147.8,123.4c-0.1-0.7-0.7-1.3-1.4-1.2s-1.3,0.7-1.2,1.4
		c0.1,0.7,0.6,1.2,1.3,1.2c0.7,0,1.3-0.6,1.3-1.3C147.8,123.5,147.8,123.4,147.8,123.4z"/>
	<path class="st1" d="M158.5,121.6c0,1.4-1,2.2-2.7,2.2H154v2.1h-0.7v-6.6h2.5C157.5,119.4,158.5,120.2,158.5,121.6z M157.8,121.6
		c0-1.1-0.7-1.7-2-1.7H154v3.3h1.7C157.1,123.3,157.8,122.7,157.8,121.6z"/>
	<path class="st1" d="M159.3,123.5c0-1.4,1.1-2.5,2.5-2.5c1.4,0,2.5,1.1,2.5,2.5c0,1.4-1.1,2.5-2.5,2.5h0c-1.3,0-2.5-1-2.5-2.3
		C159.3,123.6,159.3,123.5,159.3,123.5z M163.7,123.5c0-1-0.9-1.8-1.9-1.8c-1,0-1.8,0.9-1.8,1.9c0,1,0.9,1.8,1.9,1.8
		c1,0,1.8-0.8,1.8-1.8C163.7,123.6,163.7,123.5,163.7,123.5z"/>
	<path class="st1" d="M168.2,121v0.7h-0.2c-0.9,0-1.6,0.6-1.7,1.5c0,0.1,0,0.2,0,0.3v2.5h-0.7v-5h0.6v1
		C166.7,121.3,167.5,120.9,168.2,121z"/>
	<path class="st1" d="M172.3,125.7c-0.3,0.2-0.7,0.4-1,0.4c-0.7,0.1-1.4-0.4-1.5-1.2c0-0.1,0-0.2,0-0.3v-3h-0.9V121h0.9v-1.1h0.7
		v1.1h1.5v0.6h-1.5v2.9c-0.1,0.4,0.2,0.8,0.7,0.9c0.1,0,0.1,0,0.2,0c0.3,0,0.5-0.1,0.7-0.3L172.3,125.7z"/>
	<path class="st1" d="M174.2,120.4v0.6h1.5v0.6h-1.5v4.4h-0.7v-4.4h-0.9V121h0.9v-0.6c-0.1-0.8,0.5-1.4,1.2-1.5c0.1,0,0.2,0,0.3,0
		c0.4,0,0.7,0.1,1,0.3l-0.2,0.5c-0.2-0.2-0.5-0.3-0.7-0.2C174.5,119.5,174.2,119.8,174.2,120.4z"/>
	<path class="st1" d="M176.1,123.5c0-1.4,1.1-2.5,2.5-2.5s2.5,1.1,2.5,2.5c0,1.4-1.1,2.5-2.5,2.5h0c-1.3,0-2.5-1-2.5-2.3
		C176.1,123.6,176.1,123.5,176.1,123.5z M180.5,123.5c0-1-0.9-1.8-1.9-1.8c-1,0-1.8,0.9-1.8,1.9c0,1,0.9,1.8,1.8,1.8
		C179.7,125.4,180.5,124.6,180.5,123.5C180.5,123.5,180.5,123.5,180.5,123.5L180.5,123.5z"/>
	<path class="st1" d="M182.5,119h0.7v7h-0.7V119z"/>
	<path class="st1" d="M184.9,119.4c0-0.3,0.2-0.5,0.5-0.5c0.3,0,0.5,0.2,0.5,0.5c0,0.3-0.2,0.5-0.5,0.5c0,0,0,0,0,0
		C185.1,119.9,184.9,119.7,184.9,119.4z M185,121h0.7v5H185V121z"/>
	<path class="st1" d="M187.1,123.5c0-1.4,1.1-2.5,2.5-2.5s2.5,1.1,2.5,2.5c0,1.4-1.1,2.5-2.5,2.5h0c-1.3,0-2.5-1-2.5-2.3
		C187.1,123.6,187.1,123.5,187.1,123.5z M191.5,123.5c0-1-0.9-1.8-1.9-1.8c-1,0-1.8,0.9-1.8,1.9c0,1,0.9,1.8,1.8,1.8
		c1,0,1.8-0.8,1.8-1.8C191.4,123.6,191.4,123.5,191.5,123.5L191.5,123.5z"/>
	<path class="st1" d="M257.1,124.6c0,0.8-0.6,1.4-1.4,1.4c-0.8,0-1.4-0.6-1.4-1.4c0-0.8,0.6-1.4,1.4-1.4l0,0
		C256.4,123.2,257.1,123.8,257.1,124.6z"/>
	<path class="st1" d="M257.1,120.4c0,0.8-0.6,1.4-1.4,1.4c-0.8,0-1.4-0.6-1.4-1.4c0-0.8,0.6-1.4,1.4-1.4l0,0
		C256.4,118.9,257.1,119.6,257.1,120.4z"/>
	<path class="st1" d="M257.1,116.1c0,0.8-0.6,1.4-1.4,1.4c-0.8,0-1.4-0.6-1.4-1.4c0-0.8,0.6-1.4,1.4-1.4l0,0
		C256.4,114.7,257.1,115.4,257.1,116.1z"/>
	<path class="st8" d="M262.3,303.7h-1.5c-0.3,0-0.5-0.2-0.5-0.5c0-0.1,0-0.2,0.1-0.2l0.8-1.3l0.8-1.3c0.1-0.2,0.4-0.3,0.6-0.2
		c0.1,0,0.1,0.1,0.2,0.2l0.8,1.3l0.8,1.3c0.1,0.2,0.1,0.5-0.2,0.6c-0.1,0-0.2,0.1-0.3,0.1H262.3z"/>
	<path class="st1" d="M220,369.4v1.1h-0.5v-1.1c-0.8,0-1.6-0.3-2.2-0.8l0.3-0.5c0.6,0.5,1.2,0.8,2,0.8v-2.5c-1-0.3-2.1-0.6-2.1-1.8
		c0-0.9,0.7-1.7,2.1-1.8v-1.1h0.4v1.1c0.7,0,1.3,0.2,1.9,0.6l-0.2,0.6c-0.5-0.3-1.1-0.5-1.7-0.6v2.5c1.1,0.3,2.2,0.6,2.2,1.8
		C222.2,368.5,221.5,369.3,220,369.4z M219.5,365.7v-2.3c-1,0.1-1.4,0.6-1.4,1.2S218.8,365.5,219.5,365.7L219.5,365.7z M221.5,367.6
		c0-0.7-0.7-1-1.5-1.2v2.3C221,368.7,221.5,368.3,221.5,367.6L221.5,367.6z"/>
	<path class="st1" d="M227.4,362.8v6.6h-0.7v-6h-1.6v-0.6H227.4z"/>
	<path class="st1" d="M233.4,367.4c0,1.1-0.8,2-2.4,2c-0.9,0-1.7-0.3-2.3-0.8l0.3-0.5c0.5,0.5,1.3,0.8,2,0.8c1.1,0,1.7-0.6,1.7-1.3
		c0-0.8-0.5-1.4-2.2-1.4h-1.4l0.3-3.3h3.6v0.6h-3l-0.2,2.1h0.8C232.7,365.5,233.4,366.2,233.4,367.4z"/>
	<path class="st1" d="M235.3,368.9c0,0.2-0.1,0.4-0.1,0.6l-0.4,1.3h-0.4l0.3-1.4c-0.2-0.1-0.3-0.3-0.3-0.5c0-0.3,0.2-0.5,0.5-0.5
		c0,0,0,0,0,0C235.1,368.4,235.3,368.6,235.3,368.9z"/>
	<path class="st1" d="M240.7,367.4c0,1.1-0.8,1.9-2.4,1.9c-0.9,0-1.7-0.3-2.4-0.8l0.3-0.5c0.6,0.5,1.3,0.8,2,0.8
		c1.1,0,1.7-0.5,1.7-1.3s-0.6-1.3-1.8-1.3h-0.5v-0.5l1.8-2.3h-3.3v-0.6h4.2v0.5l-1.9,2.3C240,365.7,240.7,366.4,240.7,367.4z"/>
	<path class="st1" d="M246,367.4c0,1.1-0.8,2-2.4,2c-0.9,0-1.7-0.3-2.4-0.8l0.3-0.5c0.5,0.5,1.3,0.8,2,0.8c1.1,0,1.7-0.6,1.7-1.3
		c0-0.8-0.5-1.4-2.2-1.4h-1.4l0.3-3.3h3.6v0.6h-3l-0.2,2.1h0.8C245.3,365.5,246,366.2,246,367.4z"/>
	<path class="st1" d="M251.8,367.4c0,1.1-0.9,2-2.1,2c0,0-0.1,0-0.1,0c-1.7,0-2.7-1.2-2.7-3.3c0-2.1,1.2-3.4,3-3.4
		c0.5,0,1.1,0.1,1.6,0.4l-0.3,0.6c-0.4-0.2-0.8-0.3-1.3-0.3c-1.4,0-2.3,0.9-2.3,2.7c0,0.2,0,0.4,0,0.5c0.4-0.7,1.2-1.2,2-1.1
		c1.1-0.1,2.1,0.7,2.2,1.8C251.8,367.2,251.8,367.3,251.8,367.4z M251.2,367.4c0-0.9-0.6-1.4-1.7-1.4c-0.8-0.1-1.6,0.5-1.7,1.3
		c0,0,0,0.1,0,0.1c0,0.7,0.6,1.4,1.7,1.4c0.8,0.1,1.5-0.5,1.6-1.3C251.1,367.5,251.2,367.4,251.2,367.4L251.2,367.4z"/>
	<path class="st1" d="M252.7,368.9c0-0.3,0.2-0.5,0.5-0.5c0,0,0,0,0,0c0.3,0,0.5,0.3,0.4,0.6c0,0.2-0.2,0.4-0.4,0.4
		C252.9,369.4,252.7,369.2,252.7,368.9C252.7,368.9,252.7,368.9,252.7,368.9z"/>
	<path class="st1" d="M256.4,362.8v6.6h-0.7v-6h-1.5v-0.6H256.4z"/>
	<path class="st1" d="M258,366.1c0-2.1,1.1-3.3,2.6-3.3c1.5,0,2.6,1.2,2.6,3.3c0,2.1-1.1,3.3-2.6,3.3
		C259.1,369.4,258,368.1,258,366.1z M262.5,366.1c0-1.8-0.8-2.7-1.9-2.7c-1.1,0-2,0.9-2,2.7c0,1.8,0.8,2.7,1.9,2.7
		S262.5,367.8,262.5,366.1z"/>
	<path class="st8" d="M241,373.6v0.7l-1.8,4.2h-1.2l1.8-4H238v0.8h-1v-1.7H241z"/>
	<path class="st8" d="M241.1,377.8c0-0.4,0.4-0.6,0.8-0.6c0.3,0,0.6,0.3,0.6,0.6c0,0.4-0.2,0.7-0.6,0.8c-0.4,0-0.7-0.2-0.8-0.6
		C241.1,378,241.1,377.9,241.1,377.8z"/>
	<path class="st8" d="M246.6,376.9c0,0.9-0.6,1.6-2,1.6c-0.7,0-1.3-0.2-1.9-0.5l0.4-0.9c0.4,0.3,0.9,0.4,1.4,0.4
		c0.6,0,0.9-0.2,0.9-0.6c0-0.4-0.3-0.6-1.1-0.6h-1.2l0.2-2.8h3v0.9h-2.1l-0.1,0.9h0.4C246.1,375.4,246.6,376.1,246.6,376.9z"/>
	<path class="st8" d="M251.2,377c0,0.9-0.8,1.5-2.1,1.5c-1.2,0-2.1-0.6-2.1-1.5c0-0.5,0.3-0.9,0.7-1.1c-0.4-0.2-0.6-0.6-0.6-1
		c0-0.9,0.8-1.4,1.9-1.4c1.1,0,1.9,0.5,1.9,1.4c0,0.4-0.2,0.8-0.6,1C250.9,376.1,251.2,376.6,251.2,377z M250.1,377
		c0-0.4-0.4-0.7-0.9-0.7s-0.9,0.3-0.9,0.7s0.4,0.7,0.9,0.7S250,377.4,250.1,377L250.1,377z M248.4,374.9c0,0.4,0.3,0.6,0.8,0.6
		s0.8-0.2,0.8-0.6c0-0.4-0.3-0.6-0.8-0.6S248.4,374.6,248.4,374.9z"/>
	<path class="st8" d="M251.6,374.9c-0.1-0.7,0.4-1.3,1.1-1.3c0,0,0.1,0,0.1,0c0.7-0.1,1.4,0.5,1.5,1.2c0.1,0.7-0.5,1.4-1.2,1.5
		c-0.7,0.1-1.4-0.5-1.5-1.2C251.6,375,251.6,374.9,251.6,374.9z M253.3,374.9c0-0.5-0.2-0.8-0.5-0.8s-0.5,0.3-0.5,0.8
		c0,0.5,0.2,0.8,0.5,0.8C253.1,375.7,253.3,375.4,253.3,374.9z M255.7,373.6h0.8l-3.3,4.9h-0.8L255.7,373.6z M254.9,377.2
		c-0.1-0.7,0.4-1.3,1-1.4c0.7-0.1,1.3,0.4,1.4,1c0,0.1,0,0.2,0,0.3c0.1,0.7-0.4,1.3-1,1.4c-0.7,0.1-1.3-0.4-1.4-1
		C254.9,377.4,254.9,377.3,254.9,377.2z M256.6,377.2c0-0.5-0.2-0.8-0.5-0.8c-0.3,0-0.5,0.3-0.5,0.8c0,0.5,0.2,0.8,0.5,0.8
		C256.4,378,256.6,377.7,256.6,377.2L256.6,377.2z"/>
	<path class="st8" d="M261.1,378.3h-1.5c-0.3,0-0.5-0.2-0.5-0.5c0-0.1,0-0.2,0.1-0.2l0.8-1.3l0.8-1.3c0.1-0.2,0.4-0.3,0.6-0.2
		c0.1,0,0.1,0.1,0.2,0.2l0.8,1.3l0.8,1.3c0.1,0.2,0,0.5-0.2,0.6c-0.1,0-0.1,0.1-0.2,0.1H261.1z"/>
	<path class="st0" d="M262.3,332.5h1.5c0.3,0,0.5,0.2,0.5,0.4c0,0.1,0,0.2-0.1,0.3l-0.8,1.3l-0.8,1.3c-0.1,0.2-0.4,0.3-0.6,0.2
		c-0.1,0-0.1-0.1-0.2-0.2l-0.8-1.3l-0.8-1.3c-0.1-0.2,0-0.5,0.2-0.6c0.1,0,0.2-0.1,0.2-0.1H262.3z"/>
	<path class="st4" d="M248.1,238.2h-4.6c-1.8,0-3.2-1.4-3.2-3.2v-3.3c0-1.8,1.4-3.2,3.2-3.2h4.6c1.8,0,3.2,1.5,3.2,3.2v3.3
		C251.4,236.7,249.9,238.2,248.1,238.2L248.1,238.2z M243.5,229.5c-1.2,0-2.1,1-2.1,2.1v3.3c0,1.2,1,2.1,2.1,2.1h4.6
		c1.2,0,2.1-0.9,2.1-2.1c0,0,0,0,0,0v-3.3c0-1.2-0.9-2.1-2.1-2.1c0,0,0,0,0,0H243.5z"/>
	<path class="st4" d="M243.4,236.1c-0.3,0-0.5-0.2-0.6-0.6V233c0-0.3,0.2-0.6,0.6-0.6c0.3,0,0.6,0.2,0.6,0.6v2.5
		C244,235.8,243.7,236.1,243.4,236.1z"/>
	<path class="st4" d="M245.5,236.1c-0.3,0-0.6-0.2-0.6-0.6v-3.8c0-0.3,0.2-0.6,0.6-0.6c0.3,0,0.6,0.2,0.6,0.6v3.8
		C246.1,235.8,245.8,236.1,245.5,236.1z"/>
	<path class="st4" d="M248.1,236.1c-0.3,0-0.5-0.2-0.6-0.6v-5.1c0-0.3,0.2-0.6,0.6-0.6c0.3,0,0.6,0.2,0.6,0.6v5.1
		C248.6,235.8,248.4,236.1,248.1,236.1z"/>
	<path class="st0" d="M128.1,370.1c-1.2-0.6-1.7-2-1.1-3.2c0.2-0.3,0.4-0.6,0.7-0.8c0.1-1.1-0.7-2.1-1.8-2.2v-1.4h-1.3v1.3H124v-1.3
		h-1.3v1.3h-1.9v1.3h0.8v6.1h-0.9v1.3h2v1.5h1.3v-1.5h0.7v1.5h1.3v-1.5C127.2,372.3,128.2,371.3,128.1,370.1z M123.2,365h1.7
		c0.9,0,1.5,0.4,1.5,1.2s-0.5,1.2-1.5,1.2h-2V365H123.2z M125.2,371.2h-2.2v-2.5h2.2c1,0,1.6,0.4,1.6,1.3S126.2,371.2,125.2,371.2
		L125.2,371.2z"/>
	<path class="st4" d="M253.6,170.5l-0.3-0.3l-0.7-0.8l-2.9-3.2h0.1c-0.8,1.4-1.8,3.2-2.9,5.2l-0.1,0.2l-0.1-0.2l-5.7-12.8h0.3
		c-0.9,2.7-2,5.6-3.1,8.8l0,0c-0.4,3.4-0.9,7-1.4,10.8l0,0l0,0l-3.1,5.6l-0.1,0.1h-0.1l-3.1,0.7h-0.1l-8.3-0.2l0.2-0.1l-7.7,6.5
		l-0.3,0.3l-0.1-0.4c-0.5-1.7-1.1-3.4-1.5-5.2c0-0.1,0-0.2-0.1-0.4v-0.1c0,0,0,0.1,0,0.1s0.1,0,0,0c-0.2,0-0.4,0.1-0.6,0.1
		c-0.4,0.1-0.8,0.3-1.3,0.5c-0.8,0.4-1.7,0.8-2.5,1.2l-0.2,0.1l-0.1-0.1c-1-1-2.1-2.1-3.2-3.2h0.4c-1.1,1-2.4,2.1-3.6,3.2l-0.2,0.3
		l-0.2-0.2l-4.1-5.4l0.5-0.1c-0.5,2.6-1,5.3-1.6,8.1v0.2l-0.1,0.1h-0.1l-3.2,1.3l0.1-0.1l-3.7,3.6v-0.1l-2.9,4.5v0.1l0,0l-3.2,1.8
		l0,0l0,0l-4.5,0.9h-0.2l-0.1-0.1c-0.7-0.9-1.4-1.8-2-2.7l0.3,0.1l-6.8,1.4h-0.2l-0.1-0.1l-9-10.8h0.4l-9.1,15.4l-0.2,0.3l-0.2-0.3
		l-2.7-3.7h0.3l-4.7,4.9l-0.2,0.2l-0.1-0.2l-3.8-5h0.3l-7.2,7.4l-0.1,0.1l-0.1-0.1l-2.7-2.7h0.2l-2.5,2.7l-0.1,0.1l-0.1-0.1
		l-4.6-5.5l-1.1-1.4l-0.4-0.5l0.4,0.5l1.2,1.4l4.7,5.5h-0.2l2.5-2.7l0.1-0.1l0.1,0.1l2.7,2.7h-0.2l7.2-7.4l0.2-0.2l0.1,0.2l3.8,4.9
		h-0.3l4.7-5l0.2-0.2l0.2,0.2l2.7,3.7h-0.4l8.9-15.2l0.2-0.3l0.2,0.3l9,10.8l-0.3-0.1l6.8-1.4h0.2l0.1,0.1l2,2.7l-0.3-0.1l4.5-0.9
		h-0.1l3.2-1.8l-0.1,0.1c1-1.5,1.9-3,2.9-4.5l0,0l0,0l3.7-3.6l0,0l0,0l3.2-1.3h0.1l-0.2,0.2c0.5-2.8,1.1-5.5,1.6-8.1l0.1-0.6
		l0.4,0.5l4,5.4H201l3.6-3.2l0.2-0.2l0.2,0.2l3.2,3.2h-0.3c0.8-0.4,1.7-0.9,2.6-1.2c0.4-0.2,0.9-0.4,1.3-0.5
		c0.2-0.1,0.5-0.1,0.8-0.2c0.1,0,0.3,0.1,0.4,0.2c0.1,0.1,0.1,0.2,0.1,0.3v0.1c0,0.1,0,0.2,0,0.3c0.4,1.8,1,3.5,1.5,5.2l-0.4-0.1
		l7.9-6.8l0.1-0.1h0.1l8.4,0.2h-0.1l3.1-0.7l-0.2,0.1l3.2-5.6v0.1c0.5-3.8,1-7.4,1.4-10.8l0,0c1.1-3.1,2.2-6.1,3.1-8.8l0.2-0.4
		l0.2,0.4l5.6,12.9h-0.2c1.1-2,2.2-3.8,3-5.2l0.1-0.1l0.1,0.1c1.2,1.4,2.2,2.5,2.8,3.2l0.7,0.8C253.5,170.4,253.6,170.5,253.6,170.5
		z"/>
	<polygon class="st8" points="142,214 139,211.7 136.3,213.9 129.5,213.9 123.5,209 124.2,208.1 129.9,212.8 135.9,212.8 139,210.2 
		142,212.6 149.2,206.9 155,209.9 169.6,207 175.9,209.8 184.1,207 188.5,205.2 199,201.9 202.6,205.9 206.6,207.3 215.6,203.5 
		219.8,197.2 223.1,203.1 228.5,202.9 233.5,199.6 236.6,202.2 243.3,194.1 248.4,202.7 252.6,203.7 254.9,205.5 254.3,206.4 
		252,204.7 247.6,203.7 243.1,196 236.7,203.8 233.4,201 228.8,204 222.4,204.2 219.7,199.3 216.3,204.4 206.6,208.5 201.9,206.9 
		198.7,203.2 188.9,206.2 184.5,208.1 175.8,211 169.4,208.1 154.9,211 149.3,208.2 	"/>
	<path d="M271.2,270.1c0,0.2-37.8,0.3-84.5,0.3s-84.5-0.1-84.5-0.3s37.8-0.3,84.5-0.3S271.2,269.9,271.2,270.1z"/>
	<path class="st11" d="M271.2,311.2c0,0.2-37.8,0.3-84.5,0.3s-84.5-0.1-84.5-0.3s37.8-0.3,84.5-0.3S271.2,311,271.2,311.2z"/>
	<path class="st11" d="M271.2,349.4c0,0.2-37.8,0.3-84.5,0.3s-84.5-0.1-84.5-0.3s37.8-0.3,84.5-0.3S271.2,349.2,271.2,349.4z"/>
	<path class="st11" d="M271.2,390.5c0,0.2-37.8,0.3-84.5,0.3s-84.5-0.1-84.5-0.3s37.8-0.3,84.5-0.3S271.2,390.3,271.2,390.5z"/>
	<path class="st0" d="M252.5,416.1h-26.5c-5.4,0-9.7-4.3-9.7-9.7l0,0c0-5.4,4.3-9.7,9.7-9.7c0,0,0,0,0,0h26.5c5.4,0,9.7,4.3,9.7,9.7
		c0,0,0,0,0,0l0,0C262.2,411.8,257.9,416.1,252.5,416.1z"/>
	<path class="st4" d="M236.8,407.4c0,0.8-0.7,1.3-2,1.3h-2.5v-4.9h2.4c1.2,0,1.9,0.5,1.9,1.3c-0.6,0.3-0.8,1.1-0.5,1.7
		C236.3,407.1,236.5,407.3,236.8,407.4z M233.5,404.7v1.2h1.1c0.6,0,0.8-0.2,0.8-0.6s-0.3-0.6-0.8-0.6H233.5z M235.7,407.3
		c0-0.4-0.3-0.6-0.9-0.6h-1.3v1.2h1.3C235.4,407.9,235.7,407.7,235.7,407.3L235.7,407.3z"/>
	<path class="st4" d="M237.7,406.6v-2.7h1.1v2.7c0,0.9,0.4,1.3,1.1,1.3s1.1-0.4,1.1-1.3v-2.7h1.1v2.7c0,1.2-1,2.2-2.2,2.2
		S237.7,407.8,237.7,406.6z"/>
	<path class="st4" d="M245.5,407v1.7h-1.1V407l-1.9-3.1h1.2l1.3,2.2l1.3-2.2h1.1L245.5,407z"/>
	<rect x="227.1" y="80.4" class="st1" width="1.7" height="2.4"/>
	<rect x="229.9" y="79.3" class="st1" width="1.7" height="3.5"/>
	<rect x="232.7" y="78.5" class="st1" width="1.7" height="4.3"/>
	<rect x="235.5" y="76.9" class="st1" width="1.7" height="5.9"/>
	<path class="st1" d="M262.7,82.9H254c-0.3,0-0.6-0.3-0.6-0.6V78c0-0.3,0.3-0.6,0.6-0.6h8.7c0,0,0.1,0,0.1,0c0,0,0,0.1,0,0.1v1.5
		h0.9c0.1,0,0.2,0.1,0.2,0.2c0,0,0,0,0,0v2.1c0,0.1-0.1,0.2-0.2,0.2l0,0h-0.9v1.4C262.8,82.8,262.7,82.9,262.7,82.9z M262.5,77.7
		H254c-0.2,0-0.3,0.1-0.3,0.3c0,0,0,0,0,0v4.3c0,0.2,0.1,0.3,0.3,0.3h8.5v-1.4c0-0.1,0.1-0.2,0.2-0.2h0.9v-1.7h-0.9
		c-0.1,0-0.2-0.1-0.2-0.2V77.7z"/>
	<polygon class="st1" points="254.4,81.9 254.4,78.4 261.8,78.4 261.8,79.9 261.8,80.3 261.8,81.9 	"/>
	<path class="st1" d="M245.5,82.6c0-0.3-0.3-0.6-0.6-0.6c-0.3,0-0.6,0.3-0.6,0.6c0,0.3,0.3,0.6,0.6,0.6
		C245.2,83.2,245.5,82.9,245.5,82.6C245.5,82.6,245.5,82.6,245.5,82.6z"/>
	<path class="st1" d="M242.7,81l0.8,0.8c0.7-0.7,1.9-0.8,2.7,0c0,0,0,0,0,0L247,81C245.8,79.9,243.9,79.9,242.7,81L242.7,81z"/>
	<path class="st1" d="M244.8,78.4c-1.3,0-2.5,0.5-3.4,1.4l0.8,0.8c1.4-1.4,3.8-1.5,5.2,0c0,0,0,0,0,0l0.8-0.8
		C247.4,78.9,246.1,78.3,244.8,78.4z"/>
	<path class="st1" d="M240.1,78.5l0.8,0.8c2.1-2.2,5.6-2.2,7.8-0.1c0,0,0.1,0.1,0.1,0.1l0.8-0.8C247,75.8,242.7,75.8,240.1,78.5
		C240.1,78.4,240.1,78.4,240.1,78.5L240.1,78.5z"/>
</g>
<g id="freepik--Character--inject-31">
	<path class="st8" d="M394.5,442.4l2.9,29.7l9.1,22.8c0.6,1.6-0.1,3.3-1.7,4c-0.1,0-0.1,0-0.2,0.1l0,0c-0.9,0.3-2,0.1-2.8-0.5
		c-5.1-3.8-23.2-18.1-23.5-19.6c-0.5-2.5-5.4-31.5-5.4-31.5L394.5,442.4z"/>
	<path class="st1" d="M404.6,499l-26.7-22.4l0.1,1.2c0.2,1.1,0.7,2.1,1.5,2.8c2.2,2,8.2,7.3,22.2,17.9
		C402.6,499.2,403.6,499.3,404.6,499z"/>
	<path class="st11" d="M382.8,466.3c0.8,0.5,1.2,1.5,0.8,2.3c-0.4,0.8-1.5,1.2-2.3,0.8c-0.9-0.5-1.2-1.6-0.8-2.5
		c0.5-0.8,1.6-1.1,2.5-0.6"/>
	<path class="st1" d="M396.2,486.9c0.2,0.1,0.7-1.6,2.3-2.6c1-0.6,2.1-1,3.3-1.1c0-0.1-0.4-0.3-1.1-0.3c-1.9,0-3.6,1.1-4.4,2.9
		C396.2,486.4,396.2,486.9,396.2,486.9z"/>
	<path class="st1" d="M398.8,490.6c0.2,0.1,1-1,2.5-1.6c0.9-0.3,1.9-0.5,2.8-0.7c0.1-0.2-1.4-0.6-3.1,0.1S398.7,490.5,398.8,490.6z"
		/>
	<path class="st1" d="M391.7,482.3c1.1-1,2.4-1.9,3.6-2.7c1.4-0.6,2.8-1.2,4.3-1.6C396.4,477.7,393.3,479.4,391.7,482.3L391.7,482.3
		z"/>
	<path class="st1" d="M390,473.3c0.1,0.2,1.7-0.7,3.8-1.1c2.1-0.4,3.9,0,3.9-0.2C395.1,471,392.1,471.4,390,473.3L390,473.3z"/>
	<path class="st8" d="M325.5,445.9l1.1,24.7c0,0-24.8,9.4-25,14l48-0.4l-0.1-38.6L325.5,445.9z"/>
	<path class="st11" d="M341.3,468.4c0.9,0.3,1.5,1.2,1.4,2.2c-0.3,1-1.2,1.6-2.2,1.4c-1-0.3-1.6-1.3-1.4-2.4c0.4-1,1.4-1.5,2.4-1.2"
		/>
	<path class="st1" d="M349.5,484.2l-0.2-3.9l-46,1.8c0,0-2.1,0.9-1.9,2.4L349.5,484.2z"/>
	<path class="st1" d="M325.8,470.4c0,0.2,1.2,0.3,2.3,1.1c1.2,0.8,1.8,1.7,2,1.6c0.2-0.1-0.1-1.4-1.6-2.3
		C327.1,469.9,325.7,470.2,325.8,470.4z"/>
	<path class="st1" d="M320.8,472.5c-0.1,0.2,1,0.6,1.8,1.6s1,2,1.3,2c0.2,0,0.4-1.3-0.7-2.5C322.1,472.4,320.8,472.3,320.8,472.5z"
		/>
	<path class="st1" d="M317.9,478.6c0.2,0.1,0.5-1.1-0.1-2.4c-0.6-1.3-1.7-1.8-1.8-1.6c-0.1,0.2,0.6,0.9,1.1,1.9
		C317.7,477.6,317.7,478.6,317.9,478.6z"/>
	<path class="st1" d="M326.1,464.7c0.1,0.2,1.2-0.1,2.5,0c1.3,0.1,2.4,0.5,2.5,0.3s-0.9-1-2.4-1.1
		C327.1,463.8,326,464.5,326.1,464.7z"/>
	<path class="st1" d="M408.2,259.6c0,1.5-9.7,204.9-9.7,204.9l-25.2,0.2l-8.2-173c0,0-10.5,90.9-10.5,92.9s-3,81.1-3,81.1h-26.6
		V277.2l17.1-27.6L408.2,259.6z"/>
	<path class="st8" d="M338.5,465.7c0-0.2,0-0.3,0-0.5c0-0.3,0-0.8,0-1.4c0-1.2,0-3,0-5.2c0.1-4.5,0.2-11,0.4-19.1
		c0.5-16.1,1.4-38.4,2.5-62.9c1.1-24.5,2.3-46.8,3.1-62.9c0.4-8,0.7-14.5,0.9-19.1c0.1-2.2,0.2-4,0.2-5.2c0-0.6,0-1,0-1.3
		c0-0.2,0-0.3,0-0.5c0,0.1,0,0.3-0.1,0.5c0,0.3,0,0.8-0.1,1.3c-0.1,1.2-0.2,3-0.3,5.2c-0.3,4.5-0.6,11-1.1,19.1
		c-0.9,16.1-2.1,38.3-3.2,62.9c-1.1,24.5-2,46.8-2.4,62.9c-0.2,8.1-0.2,14.6-0.3,19.1c0,2.2,0.1,4,0.1,5.2c0,0.6,0,1,0,1.4
		C338.3,465.5,338.4,465.6,338.5,465.7z"/>
	<path class="st8" d="M385,287.8c-0.2,0-0.1,39.6,0,88.4s0.5,88.4,0.6,88.4s0.2-39.6,0-88.4C385.4,327.3,385.1,287.8,385,287.8z"/>
	<path class="st8" d="M363,282c0.4,0.2,0.8,0.4,1.2,0.5c0.8,0.3,1.9,0.7,3.3,1.2l0.3,0.1v-0.3c0.2-2.5,0.4-5.8,0.5-9.5
		c0.2-4,0.3-7.6,0.4-10.2c0-1.3,0.1-2.4,0.1-3.1c0-0.4,0-0.7-0.1-1.1c-0.1,0.4-0.2,0.7-0.2,1.1c-0.1,0.7-0.2,1.8-0.2,3.1
		c-0.2,2.6-0.4,6.2-0.6,10.2c-0.2,3.7-0.3,7-0.4,9.5l0.3-0.2c-1.4-0.5-2.6-0.8-3.4-1.1C363.9,282.2,363.5,282.1,363,282z"/>
	<path class="st8" d="M365.3,260.4c0,0-0.1-0.2-0.4-0.3c-1-0.3-2,0.3-2.2,1.2c-0.1,0.2-0.1,0.4-0.1,0.6c0.1,0.9,0.7,1.6,1.6,1.8
		c0.9,0.2,1.8-0.3,2.2-1c0.4-0.6,0.4-1.4,0-2c-0.2-0.4-0.6-0.7-1-0.9c-0.3-0.1-0.5-0.1-0.5-0.1c0,0,0.7,0.2,1.1,1.1
		c0.2,0.5,0.2,1-0.1,1.5c-0.3,0.5-1,0.8-1.6,0.8c-0.6-0.2-1.1-0.7-1.2-1.3c-0.1-0.5,0.2-1,0.7-1.3
		C364.3,260.4,364.8,260.3,365.3,260.4z"/>
	<path class="st8" d="M351.7,262.6c0.2,0,0.4-0.9,0.5-2c0.1-1.1,0.1-2.1-0.1-2.1c-0.2,0-0.4,0.9-0.5,2
		C351.5,261.6,351.5,262.5,351.7,262.6z"/>
	<path class="st8" d="M349.6,262.4c0.2,0,0.3-1,0.3-2.2s-0.1-2.1-0.3-2.1s-0.3,1-0.3,2.1S349.4,262.4,349.6,262.4z"/>
	<path class="st8" d="M385.4,263.8c0.4-0.8,0.6-1.6,0.6-2.4c0.2-0.8,0.2-1.7,0-2.5c-0.4,0.7-0.6,1.6-0.6,2.4
		C385.2,262.1,385.2,263,385.4,263.8z"/>
	<path class="st8" d="M382.9,264c0.9-1.6,1-3.5,0.2-5.1C383.1,260.6,383,262.3,382.9,264z"/>
	<path class="st1" d="M413.3,100c-0.2-0.7-0.5-1.3-1.1-1.8c-1.4-0.9-3-1.3-4.6-1.1c-1-1.9-1.6-4-1.9-6.1c0.8,0,1.5-0.2,2.2-0.6
		l0.4-0.1c1.6-0.7,1.7-3,0.7-4.4c-1.1-1.3-2.6-2.2-4.2-2.7c1.2,0.1,2.2,0.8,3.3,1.2c1.1,0.4,2.7,0,2.8-1.2c0-0.4,0-0.8-0.2-1.1
		l-0.7-2.1c-0.1-0.6-0.4-1.1-0.9-1.4c-0.4-0.2-0.8-0.3-1.2-0.3c-1.3-0.4-2-1.9-3.3-2.3c-1-0.1-2,0-2.9,0.4c-1,0.2-2.3,0-2.6-0.9
		c1.3-0.7,2.4-1.6,3.3-2.8c0.9-1.2,0.7-2.9-0.3-4c-1-0.6-2.2-0.9-3.3-0.7c-1.3,0.1-2.9,0.4-3.2,1.6c-1.8-0.5-3.6,0.6-4,2.4
		c0,0.1,0,0.2-0.1,0.2l-3.3-0.3c0.9-1,2.2-1.6,3-2.7c0.8-1.1,0.7-3.1-0.7-3.3c-0.5,0-1,0-1.5-0.1c-0.3-0.1-0.6-0.4-1-0.4
		c-0.3,0-0.5,0.1-0.7,0.3l-7,4.5c0.6-1.5,1.2-2.9,1.9-4.4c0.6-1.5,1-3.2-0.2-4c-1.2-0.8-2.9,0.4-3.1,1.8c-1.2-0.3-2.4,0.5-2.7,1.7
		c0,0.1,0,0.3-0.1,0.4c-1.2-0.5-2.5,0.1-3,1.2c-0.3,0.8-0.2,1.6,0.3,2.3c-1.2,0-2.3,0.4-3.3,1c-0.1-1.1-1.1-1.9-2.2-1.8
		c-0.4,0-0.7,0.2-1.1,0.4c0-0.7-0.1-1.4-0.5-2c-0.4-0.5-1.1-0.7-1.7-0.3c0,0-0.1,0.1-0.1,0.1c0.3-1.3-0.5-2.5-1.8-2.8
		c-0.7-0.1-1.4,0-2,0.5l-1.1-1.4c-1.2-0.1-2.4,0.5-3,1.5c-0.5,1.1,0.3,2.6,1.5,2.5c-0.8,0-0.6,1.3-0.2,2l2,2.8
		c-0.9-0.8-2.2-0.9-3.2-0.3c-0.8-0.8-2-0.8-2.8-0.1c0,0,0,0-0.1,0.1c-0.5-0.7-1.5-0.9-2.2-0.4c-0.3,0.2-0.6,0.6-0.7,0.9
		c-0.2-0.5-0.9-0.6-1.5-0.5c-0.8,0-1.6,0.3-2.3,0.8c-0.6,0.6-0.6,1.8,0.2,2.1c-0.7-0.4-1.6,0.4-1.6,1.2c0.1,0.8,0.5,1.5,1.1,2
		c0.7,0.5,1.2,1.1,1.7,1.8c-0.7-0.4-1.5-0.6-2.3-0.5c-1.5-0.1-2.9,0.2-4.2,0.8c-0.2-0.6-1-0.6-1.7-0.5c-1.9,0.4-3.7,1.3-5,2.7
		c-0.6,0.7-1.2,1.6-0.8,2.4c0.2,0.4,0.5,0.6,0.9,0.8l4.5,2.8c-2.4,0.8-4.6,2.3-6.1,4.3c-0.9,0.5-2,0.6-2.8,1.2
		c-0.8,0.6-0.8,2.3,0.3,2.3c-0.8,0.6-1,1.7-0.4,2.5c0.1,0.2,0.3,0.4,0.5,0.5c0.1,0.2,0.3,0.4,0.5,0.6c0.4,0.3,0.8,0.5,1.2,0.6
		c0.5,0.6,1.2,1,2,0.9c-0.8,0.7-1.6,1.6-2.1,2.5c-0.8,1.3-0.8,2.8,0,4.1c0,0.1,0.1,0.1,0.2,0.2c0.1,0.5,0.4,1,0.9,1.2
		c-0.2,0.3-0.2,0.7-0.2,1.1c-2.3,0.9-3.4,3.5-2.5,5.7c0.3,0.8,0.8,1.4,1.5,1.9c1,0.7,2.9,0.6,3-0.7c0.5,1,1.5,1.7,2.6,1.9
		c-0.8,1.6-0.1,3.6,1.5,4.4c0.1,0,0.1,0.1,0.2,0.1c-1.4,1.4-1.4,3.6-0.1,5c0.3,0.3,0.7,0.6,1.2,0.8c-0.5,1.4,0.3,2.9,1.7,3.4
		c1.4,0.5,2.9-0.3,3.4-1.7c0.4,1,1.1,1.9,2,2.5c0.9,0.6,2.2,0.3,2.7-0.6c0,0,0-0.1,0.1-0.1c0.7,1.9,2.9,2.8,4.8,2.1
		c0.2-0.1,0.5-0.2,0.7-0.3c0,1.3,1,2.4,2.4,2.4c1.2,0,2.2-0.8,2.4-2l6.2-0.1c1.4,0,2.7-0.1,4.1-0.3c1.7-0.4,3.3-1.1,4.7-2.2
		c0.8-1,2.2-1.2,3.3-0.6c3.3,1,6.9,0.1,9.5-2.2c0.4-0.4,0.8-0.7,1.2-1c0.6-0.2,1.2-0.3,1.8-0.2c1.5,0,3-0.2,4.5-0.7
		c1.3-0.2,2.4-1,3.2-2.1c0.6-1.2-0.1-2.9-1.4-2.9c-0.1-0.8,0.1-1.7,0.7-2.3c0.6-0.6,1.6-0.7,2.3-0.1c0.4,0.5,0.4,1.3-0.1,1.7
		c-0.1,0.1-0.3,0.2-0.5,0.3c1.4,1,3.6-0.4,3.6-2.1c-0.1-1.7-1.6-3.1-3.3-3.1c0.3-1.2,0.4-2.5,0.1-3.7c0.9,1.1,2.6,1.3,3.7,0.4
		c0.7,1.1,1.8,1.9,3.1,2.2c1.3,0.2,2.6-0.5,3.1-1.7c0.3-1.1-0.3-2.2-1.4-2.5c-0.2-0.1-0.4-0.1-0.6-0.1c0.6-1.2,0.1-2.7-1.1-3.3
		c-0.3-0.2-0.7-0.3-1.1-0.3c0.2-1.7-0.7-3.4-2.3-4c1,0.5,2.2,0.2,2.7-0.8c0.1-0.1,0.1-0.2,0.1-0.3c0.8,1.2,2.7,0.9,4,0.2
		C412.7,102.4,413.5,101.2,413.3,100z"/>
	<path class="st8" d="M413.3,100c0.1,0.2,0.1,0.3,0.1,0.5c0,0.5-0.2,1-0.5,1.4c-0.5,0.6-1.3,1.1-2.1,1.4c-0.5,0.2-1,0.3-1.6,0.3
		c-0.6,0-1.3-0.3-1.6-0.8h0.1c-0.4,1.1-1.6,1.6-2.7,1.2c-0.1,0-0.2-0.1-0.3-0.1l0.1-0.2c1.6,0.7,2.6,2.4,2.4,4.1l-0.1-0.1
		c0.9,0,1.7,0.4,2.1,1.1c0.5,0.7,0.6,1.7,0.2,2.5l-0.1-0.2c1,0,1.8,0.6,2.1,1.6c0.3,1-0.1,2.1-1,2.6c-0.9,0.6-2,0.7-3,0.3
		c-1-0.4-1.8-1.1-2.4-2.1h0.2c-1.2,0.9-3,0.7-3.9-0.4l0.3-0.1c0.3,1.3,0.2,2.6-0.1,3.8l-0.2-0.2c0.8,0,1.6,0.3,2.3,0.8
		c0.7,0.5,1.1,1.3,1.2,2.2c0,0.9-0.4,1.8-1.2,2.3c-0.8,0.6-1.8,0.6-2.6,0.1l-0.4-0.3h0.5c0.5-0.1,0.8-0.6,0.7-1.2
		c-0.1-0.5-0.6-0.9-1.2-0.8c-0.6,0-1.1,0.3-1.4,0.8c-0.3,0.5-0.4,1.2-0.3,1.8l-0.2-0.2c0.5,0,0.9,0.2,1.2,0.6
		c0.3,0.3,0.5,0.8,0.6,1.2c0.1,0.5,0,0.9-0.2,1.3c-0.2,0.4-0.5,0.8-0.8,1.1c-0.7,0.5-1.5,0.9-2.4,1.2c-0.9,0.2-1.7,0.4-2.6,0.5
		c-1.7,0.4-3.8-0.3-4.9,1.3c-1.4,1.3-3.1,2.2-5,2.6c-0.9,0.2-1.9,0.3-2.9,0.2c-1-0.1-1.9-0.3-2.8-0.6c-0.4-0.1-0.9-0.1-1.3,0.1
		c-0.4,0.3-0.8,0.5-1.1,0.8c-0.8,0.6-1.7,1.1-2.6,1.5c-1.9,0.7-4,1-6,0.9l-6.2,0.1l0.2-0.2c-0.2,1.4-1.5,2.5-2.9,2.3
		c-1.4-0.2-2.4-1.4-2.3-2.8l0.4,0.2c-1.8,1.2-4.3,0.7-5.4-1.2c-0.1-0.2-0.3-0.5-0.4-0.7h0.5c-0.2,0.6-0.7,1-1.3,1.1
		c-0.6,0.1-1.2,0.1-1.7-0.2c-1-0.6-1.8-1.6-2.2-2.6h0.5c-0.4,1.6-2,2.5-3.6,2.1c-1.6-0.4-2.5-2-2.1-3.6c0-0.2,0.1-0.3,0.2-0.5
		l0.2,0.3c-1.2-0.4-2-1.5-2.2-2.7c-0.3-1.3,0.1-2.6,1-3.5l0.1,0.4c-1.8-0.7-2.7-2.8-2-4.6c0-0.1,0.1-0.2,0.1-0.3l0.2,0.4
		c-1.2-0.2-2.2-0.9-2.8-2l0.5-0.1c0,0.3-0.2,0.6-0.4,0.8c-0.2,0.2-0.5,0.4-0.8,0.4c-0.6,0.1-1.2,0.1-1.7-0.1c-1-0.5-1.8-1.4-2.2-2.6
		c-0.4-1.1-0.3-2.4,0.2-3.4c0.5-1.1,1.4-1.9,2.5-2.4l-0.2,0.3c-0.1-0.4,0-0.9,0.2-1.3l0.1,0.3c-0.5-0.3-0.9-0.8-1-1.4l0.1,0.1
		c-0.9-1.1-1.1-2.6-0.5-3.9c0.5-1.3,1.4-2.4,2.5-3.3l0.2,0.5c-0.9,0-1.7-0.3-2.2-1l0.1,0.1c-0.7-0.2-1.4-0.7-1.8-1.3l0.1,0.1
		c-0.6-0.3-0.9-0.9-1-1.6c0-0.7,0.3-1.4,0.8-1.8l0.2,0.5c-0.3,0-0.6-0.2-0.8-0.4c-0.2-0.2-0.3-0.5-0.3-0.8c0-0.6,0.2-1.2,0.7-1.6
		c0.9-0.7,2-0.8,2.9-1.2l-0.1,0.1c1.6-2.1,3.8-3.6,6.3-4.4l-0.1,0.5l-2-1.3l-1.6-1c-0.5-0.3-1.1-0.7-1.6-1c-0.3-0.2-0.4-0.6-0.5-0.9
		c0-0.3,0-0.7,0.2-1c0.3-0.6,0.7-1.1,1.2-1.5c0.9-0.8,2-1.5,3.1-2c0.6-0.2,1.2-0.4,1.8-0.5c0.3-0.1,0.7-0.1,1,0
		c0.3,0.1,0.6,0.3,0.8,0.6l-0.4-0.1c1-0.5,2.2-0.8,3.4-0.8c0.6,0,1.1-0.1,1.7,0c0.6,0,1.2,0.2,1.7,0.6l-0.4,0.3
		c-0.5-1-1.7-1.5-2.4-2.6c-0.4-0.6-0.5-1.3-0.2-2c0.2-0.3,0.4-0.6,0.7-0.8c0.3-0.2,0.8-0.2,1.1,0l-0.2,0.5c-0.3-0.1-0.6-0.4-0.7-0.8
		c-0.1-0.3-0.1-0.7,0-1c0.1-0.3,0.3-0.6,0.5-0.8c0.2-0.2,0.5-0.4,0.8-0.5c0.5-0.2,1.1-0.3,1.7-0.3c0.3,0,0.6,0,0.9,0
		c0.4,0.1,0.7,0.3,0.8,0.7h-0.5c0.2-1,1.3-1.6,2.3-1.4c0.5,0.1,0.9,0.4,1.1,0.8h-0.4c0.8-0.9,2.2-1,3.1-0.2c0.1,0.1,0.1,0.1,0.2,0.2
		h-0.4c1.1-0.7,2.6-0.6,3.5,0.3l-0.4,0.3l-1.7-2.4c-0.3-0.4-0.6-0.9-0.7-1.4c-0.1-0.3-0.1-0.6,0-0.8c0-0.2,0.1-0.3,0.3-0.4
		c0.1-0.1,0.3-0.2,0.5-0.2V67c-0.7,0-1.4-0.4-1.7-1c-0.3-0.6-0.4-1.3-0.1-1.9c0.6-1.1,1.9-1.8,3.2-1.6h0.1l0.1,0.1
		c0.4,0.5,0.8,0.9,1.1,1.4h-0.4c1.1-0.9,2.7-0.8,3.7,0.3c0.5,0.6,0.7,1.4,0.5,2.2l-0.4-0.2c0.3-0.3,0.8-0.5,1.2-0.4
		c0.4,0.1,0.8,0.3,1,0.6c0.4,0.6,0.6,1.4,0.6,2.1l-0.4-0.2c0.9-0.8,2.3-0.7,3.1,0.2c0.3,0.4,0.5,0.8,0.5,1.3l-0.4-0.2
		c1-0.6,2.2-1,3.4-1l-0.2,0.4c-0.8-1.1-0.6-2.7,0.5-3.6c0.7-0.5,1.6-0.7,2.5-0.3l-0.3,0.2c0.1-1.4,1.2-2.4,2.6-2.4
		c0.1,0,0.3,0,0.4,0.1l-0.3,0.2c0.1-0.6,0.5-1.2,0.9-1.6c0.5-0.4,1.1-0.7,1.7-0.6c0.7,0.1,1.2,0.5,1.5,1.1c0.2,0.6,0.3,1.2,0.1,1.8
		c-0.2,1.1-0.6,2.1-1.1,3.1l-1.3,3l-0.3-0.3l4.3-2.8l2.1-1.4c0.3-0.3,0.7-0.5,1.1-0.7c0.3-0.1,0.5,0,0.8,0.1
		c0.2,0.1,0.4,0.2,0.5,0.3c0.4,0.1,0.7,0.1,1.1,0.1c0.5,0,0.9,0.2,1.2,0.6c0.5,0.7,0.6,1.7,0.2,2.5c-0.3,0.7-0.9,1.4-1.5,1.8
		c-0.6,0.4-1.2,0.9-1.8,1.5l-0.1-0.4l3.3,0.3l-0.2,0.2c0.4-1.9,2.2-3.2,4.1-2.8c0.1,0,0.2,0,0.3,0.1l-0.3,0.1
		c0.3-0.7,0.9-1.3,1.7-1.5c0.7-0.2,1.4-0.3,2.1-0.3c0.7,0,1.4,0,2.1,0.2c0.7,0.2,1.2,0.7,1.5,1.4c0.5,1.3,0.2,2.8-0.7,3.9
		c-0.9,1-1.9,1.8-3,2.4l0.1-0.2c0.2,0.5,0.6,0.8,1.1,0.8c0.5,0.1,1.1,0,1.6-0.1c0.5-0.2,1.1-0.3,1.6-0.4c0.6-0.1,1.1,0,1.6,0.3
		c0.9,0.6,1.5,1.5,2.4,1.9c0.5,0.1,1,0.3,1.4,0.4c0.5,0.2,0.8,0.7,1,1.2l0.9,2.7c0.2,0.5,0.1,1-0.1,1.4c-0.3,0.4-0.7,0.7-1.2,0.8
		c-0.5,0.1-0.9,0.1-1.4,0c-0.4-0.1-0.8-0.3-1.2-0.5c-0.7-0.4-1.5-0.7-2.3-0.8v-0.2c0.9,0.3,1.8,0.8,2.7,1.3c0.8,0.5,1.5,1.2,1.9,2
		c0.4,0.8,0.4,1.7,0.2,2.5c-0.2,0.8-0.8,1.4-1.6,1.6l0,0c-0.7,0.4-1.4,0.6-2.2,0.6l0.1-0.1c0.3,2.1,0.9,4.2,1.9,6.1h-0.1
		c1,0,2.1,0.1,3.1,0.4c0.7,0.2,1.4,0.6,1.9,1.1c0.3,0.3,0.5,0.7,0.7,1.1C413.2,99.8,413.2,99.9,413.3,100c-0.2-0.5-0.5-1-0.9-1.4
		c-0.5-0.5-1.2-0.9-1.9-1.1c-1-0.2-2-0.4-3.1-0.3l0,0l0,0c-1-1.9-1.6-4-1.9-6.2v-0.1h0.1c0.8,0,1.5-0.2,2.1-0.6l0,0
		c0.7-0.2,1.3-0.8,1.5-1.5c0.2-0.8,0.2-1.6-0.2-2.4c-0.4-0.8-1-1.5-1.8-1.9c-0.8-0.5-1.7-0.9-2.7-1.3l-0.8-0.3h0.8
		c0.8,0.1,1.6,0.4,2.4,0.8c0.4,0.2,0.8,0.3,1.2,0.4c0.4,0.1,0.8,0.1,1.2,0c0.4-0.1,0.8-0.3,1-0.7c0.2-0.4,0.2-0.8,0.1-1.2l-0.8-2.7
		c-0.1-0.4-0.4-0.8-0.8-1c-0.5-0.1-1-0.2-1.5-0.4c-1-0.5-1.5-1.4-2.4-1.9c-0.9-0.5-1.9-0.2-3,0.1c-0.5,0.2-1.1,0.2-1.7,0.1
		c-0.6-0.1-1.2-0.5-1.4-1.1v-0.1l0.1-0.1c1.1-0.6,2.1-1.4,2.9-2.3c0.8-1,1.1-2.3,0.6-3.5c-0.3-0.6-0.8-1-1.4-1.2
		c-0.6-0.2-1.3-0.3-2-0.2c-0.7,0-1.4,0.1-2,0.3c-0.6,0.1-1.2,0.6-1.4,1.2l-0.1,0.2l-0.2-0.1c-1.7-0.4-3.4,0.6-3.8,2.3
		c0,0,0,0.1,0,0.1v0.2h-0.2l-3.3-0.3h-0.4l0.3-0.3c0.6-0.6,1.2-1.1,1.8-1.5c0.6-0.4,1.1-1,1.5-1.7c0.3-0.7,0.2-1.5-0.2-2.1
		c-0.2-0.3-0.6-0.4-0.9-0.4c-0.4,0-0.9,0-1.3-0.1c-0.4-0.2-0.7-0.5-1-0.4c-0.4,0.2-0.7,0.4-1,0.6l-2.1,1.4l-4.3,2.8l-0.6,0.4
		l0.3-0.7c0.4-1,0.8-2,1.3-3c0.5-1,0.8-2,1.1-3c0.1-0.5,0.1-1-0.1-1.5c-0.2-0.5-0.6-0.8-1.1-0.8c-1.1,0-1.9,0.8-2.2,1.8v0.3
		l-0.3-0.1c-1.1-0.2-2.2,0.5-2.4,1.6c0,0.1,0,0.2,0,0.3v0.4l-0.3-0.1c-1-0.4-2.2,0.1-2.7,1.1c-0.3,0.7-0.2,1.4,0.3,2l0.3,0.4h-0.5
		c-1.1,0-2.2,0.4-3.2,0.9l-0.4,0.3v-0.5c-0.1-1-1-1.7-2-1.5c-0.3,0-0.6,0.2-0.9,0.3l-0.4,0.4v-0.6c0-0.6-0.1-1.3-0.5-1.8
		c-0.3-0.4-1.1-0.6-1.4-0.2l-0.7,0.9l0.3-1.1c0.2-1.1-0.5-2.2-1.6-2.5c-0.6-0.1-1.3,0-1.8,0.4l-0.2,0.2l-0.2-0.2l-1.1-1.4l0.2,0.1
		c-1.1-0.1-2.1,0.4-2.7,1.3c-0.5,0.9,0.2,2.3,1.2,2.2V67c-0.2,0-0.2,0-0.3,0.2c0,0.2,0,0.4,0,0.6c0.1,0.4,0.3,0.8,0.6,1.2l1.7,2.4
		l-0.4,0.3c-0.8-0.7-2-0.8-2.9-0.3l-0.2,0.1l-0.2-0.2c-0.7-0.7-1.8-0.7-2.5,0c0,0,0,0,0,0l-0.3,0.3l-0.2-0.4
		c-0.4-0.6-1.3-0.7-1.9-0.3c-0.2,0.2-0.4,0.4-0.5,0.7l-0.1,1.3l-0.4-1.2c-0.1-0.3-0.7-0.4-1.2-0.3c-0.5,0-1,0.1-1.5,0.3
		c-0.5,0.1-0.8,0.5-1,1c-0.1,0.5,0,1,0.4,1.1l-0.2,0.5c-0.4-0.2-0.9,0.1-1.1,0.5c-0.2,0.5-0.1,1,0.2,1.4c0.6,1,1.8,1.5,2.5,2.7
		l0.6,1.1l-1-0.8c-0.8-0.6-2-0.4-3.1-0.4c-1.1,0-2.2,0.3-3.2,0.8l-0.3,0.2l-0.1-0.3c-0.1-0.4-0.8-0.4-1.3-0.3
		c-0.6,0.1-1.1,0.3-1.7,0.5c-1.1,0.4-2.1,1.1-3,1.9c-0.4,0.4-0.8,0.8-1,1.3c-0.3,0.5-0.2,1,0.2,1.4c0.5,0.4,1,0.7,1.5,1l1.6,1
		l2.1,1.3l0.5,0.3l-0.6,0.2c-2.4,0.8-4.5,2.2-6,4.2l0,0l0,0c-1,0.6-2.1,0.6-2.8,1.2c-0.3,0.3-0.5,0.7-0.5,1.1c0,0.4,0.2,0.8,0.6,0.8
		h0.8l-0.7,0.5c-0.4,0.3-0.6,0.8-0.6,1.4c0,0.5,0.3,0.9,0.7,1.2l0,0l0,0c0.4,0.5,0.9,0.9,1.5,1.1h0.1v0.1c0.4,0.5,1.1,0.8,1.8,0.8
		l0.8-0.1l-0.6,0.5c-1,0.8-1.8,1.9-2.3,3.1c-0.5,1.1-0.3,2.4,0.4,3.4l0,0v0.1c0.1,0.5,0.4,0.8,0.7,1.1l0.2,0.1l-0.1,0.2
		c-0.1,0.3-0.2,0.6-0.1,0.9v0.2l-0.2,0.1c-1,0.4-1.8,1.1-2.3,2.1c-0.5,1-0.5,2.1-0.2,3c0.3,1,1,1.8,1.9,2.3c0.4,0.2,0.9,0.2,1.4,0.1
		c0.4,0,0.7-0.2,0.9-0.6l0.1-1l0.4,0.9c0.5,0.9,1.4,1.6,2.4,1.7h0.4l-0.2,0.3c-0.7,1.5-0.1,3.3,1.4,4.1c0.1,0,0.1,0.1,0.2,0.1
		l0.4,0.1l-0.4,0.3c-0.8,0.8-1.2,1.9-0.9,3c0.2,1,0.9,1.9,1.9,2.3l0.2,0.1l-0.1,0.2c-0.4,1.3,0.3,2.7,1.6,3.1c1.2,0.3,2.5-0.3,3-1.5
		l0.2-0.6l0.3,0.5c0.4,1,1.1,1.9,2,2.4c0.8,0.5,1.9,0.2,2.4-0.6c0,0,0,0,0,0l0.2-0.7l0.2,0.7c0.4,1,1.2,1.7,2.2,2
		c1,0.3,2,0.2,2.8-0.4l0.4-0.3v0.5c0,1.2,0.9,2.1,2.1,2.2c1.1,0,2-0.8,2.2-1.8v-0.2h0.2h6.2c2,0.1,4-0.2,5.9-0.8
		c0.9-0.4,1.8-0.8,2.5-1.4c0.4-0.3,0.8-0.6,1.2-0.9c0.5-0.3,1.1-0.3,1.6-0.2c0.9,0.3,1.8,0.5,2.8,0.6c0.9,0.1,1.9,0,2.8-0.2
		c1.8-0.3,3.4-1.2,4.8-2.4c0.3-0.3,0.7-0.6,1.1-0.9c0.4-0.2,0.9-0.3,1.4-0.3c0.9,0,1.8,0,2.6-0.2c0.9-0.1,1.7-0.3,2.5-0.5
		c0.8-0.2,1.6-0.6,2.2-1.1c0.6-0.5,1-1.3,0.9-2c0-0.8-0.6-1.4-1.4-1.5h-0.2v-0.2c-0.1-0.7,0-1.4,0.4-2c0.4-0.6,1-1,1.7-1
		c0.7-0.1,1.4,0.4,1.5,1.1c0.2,0.7-0.3,1.4-1,1.6l0.1-0.3c0.7,0.4,1.6,0.3,2.2-0.1c0.7-0.4,1.1-1.2,1.1-2c-0.2-1.6-1.6-2.8-3.2-2.8
		H401v-0.2c0.3-1.2,0.4-2.4,0.1-3.7l-0.1-0.7l0.4,0.5c0.9,1,2.4,1.2,3.5,0.4l0.1-0.1l0.1,0.1c0.5,0.9,1.3,1.6,2.3,2
		c0.9,0.4,1.9,0.3,2.7-0.2c0.8-0.4,1.2-1.4,0.9-2.3c-0.2-0.8-0.9-1.4-1.8-1.4H409l0.1-0.2c0.5-1.2,0-2.5-1.1-3.1
		c-0.3-0.1-0.6-0.2-0.9-0.2h-0.1v-0.1c0.2-1.7-0.7-3.3-2.2-3.9l0.1-0.2c0.9,0.5,2.1,0.2,2.6-0.8c0-0.1,0.1-0.2,0.1-0.3v-0.2l0.1,0.1
		c0.3,0.5,0.9,0.8,1.5,0.8c0.5,0,1.1-0.1,1.6-0.2c0.8-0.3,1.5-0.7,2-1.3c0.3-0.4,0.5-0.9,0.5-1.4C413.3,100.2,413.3,100,413.3,100z"
		/>
	<path class="st12" d="M385.7,145c-0.1-3.3-0.2-5.8-0.1-5.8c0,0,11.1-1.6,11.4-12.7c0.1-5.4-0.5-16.4-1.2-26.4
		c-0.7-10.7-9.6-19.1-20.4-19.2h-1.1c-11.5,0.5-17.5,10.6-16.7,22.2l1.2,42.2l6.6,16.1C371.9,168.4,386.1,154.7,385.7,145L385.7,145
		z"/>
	<path class="st13" d="M385.6,139.2c-5.1-0.1-10.1-1.6-14.4-4.4c0,0,3.3,8.5,14.4,7.6V139.2z"/>
	<path class="st1" d="M391.5,110c0,0.9-0.7,1.6-1.5,1.6c-0.8,0.1-1.6-0.6-1.6-1.4c0,0,0,0,0,0c0-0.9,0.7-1.6,1.5-1.6
		C390.7,108.5,391.4,109.1,391.5,110C391.4,110,391.4,110,391.5,110z"/>
	<path class="st1" d="M393.4,104.6c-0.2,0.2-1.4-0.7-3.1-0.7c-1.7,0-3,0.8-3.1,0.6c-0.2-0.2,0.1-0.5,0.7-0.8
		c0.7-0.5,1.6-0.8,2.5-0.8c0.9,0,1.7,0.3,2.5,0.8C393.3,104.2,393.5,104.6,393.4,104.6z"/>
	<path class="st1" d="M376.4,110.8c0,0.9-0.7,1.6-1.5,1.6c-0.8,0.1-1.5-0.6-1.6-1.4c0,0,0,0,0-0.1c0-0.9,0.7-1.6,1.5-1.6
		C375.6,109.3,376.3,109.9,376.4,110.8C376.4,110.7,376.4,110.8,376.4,110.8z"/>
	<path class="st1" d="M376.6,105.1c-0.2,0.2-1.4-0.7-3.1-0.7s-3,0.8-3.1,0.6c-0.2-0.2,0.1-0.5,0.7-0.8c0.7-0.5,1.6-0.8,2.5-0.8
		c0.9,0,1.7,0.3,2.5,0.8C376.6,104.6,376.8,105.1,376.6,105.1z"/>
	<path class="st1" d="M382.6,118.3c0.9-0.3,1.8-0.4,2.8-0.5c0.4,0,0.8-0.1,0.9-0.4c0-0.4-0.1-0.9-0.3-1.3c-0.4-1.1-0.8-2.2-1.2-3.3
		c-1.7-4.7-3-8.6-2.8-8.7s1.7,3.7,3.5,8.5l1.2,3.3c0.3,0.5,0.3,1.1,0.2,1.7c-0.1,0.3-0.4,0.5-0.7,0.6c-0.2,0.1-0.5,0.1-0.7,0.1
		C384.5,118.4,383.6,118.4,382.6,118.3z"/>
	<path class="st1" d="M377.1,99.4c-0.2,0.5-1.9,0.2-3.9,0.4c-2,0.2-3.6,0.8-3.9,0.3c-0.1-0.2,0.2-0.6,0.8-1.1c1.8-1.1,4-1.3,5.9-0.6
		C376.8,98.8,377.2,99.2,377.1,99.4z"/>
	<path class="st1" d="M392.8,98.9c-0.3,0.4-1.5,0-2.9,0s-2.6,0.3-2.9-0.1c-0.1-0.2,0.1-0.6,0.6-1c0.7-0.5,1.5-0.7,2.3-0.7
		c0.8,0,1.6,0.3,2.3,0.8C392.7,98.3,392.9,98.7,392.8,98.9z"/>
	<path class="st13" d="M384.3,122.7c-0.2,0.7-0.5,1.3-0.8,1.9c-0.4,0.6-1,1-1.7,1.1c-0.7,0-1.5-0.3-1.9-0.9
		c-0.4-0.6-0.6-1.3-0.6-2.1c0-0.7,0.3-1.5,0.9-1.6c0.3,0,0.6,0,0.8,0.1l3.5,1.2"/>
	<path class="st1" d="M383,125.6c-0.6,0.1-1.2,0-1.8-0.1c-0.6-0.2-1.1-0.6-1.4-1.2c-0.4-0.7-0.4-1.5-0.2-2.2
		c0.1-0.2,0.2-0.4,0.3-0.5c0.1-0.2,0.1-0.1,0.3-0.1c0.1,0,0.4,0.1,0.6,0.2l0.6,0.2c0.8,0.3,1.4,0.5,2,0.7c0.6,0.3,1.2,0.4,1.9,0.5
		c-0.5-0.4-1.1-0.7-1.7-0.9c-0.6-0.2-1.2-0.5-2-0.8l-0.6-0.2c-0.2-0.1-0.4-0.2-0.6-0.2c-0.2-0.1-0.3-0.1-0.5,0
		c-0.1,0.1-0.3,0.2-0.4,0.3c-0.1,0.2-0.3,0.4-0.4,0.7c-0.3,0.9-0.2,1.9,0.2,2.7c0.4,0.7,1.1,1.1,1.8,1.3c0.5,0.1,1,0.1,1.5,0
		C382.9,125.7,383.1,125.6,383,125.6z"/>
	<path class="st1" d="M398.6,90.9c0-0.6-0.1-1.1-0.2-1.7c-0.3-0.8-0.8-1.5-1.5-2.1c-2.1-2.1-4.4-4.2-7-4.9c-1.6-0.4-3.3-0.3-5-0.7
		c-1-0.3-2-0.7-3-1.1c-4.1-1.3-8.4-1.6-12.6-0.7c-2.4,0.3-4.6,1.1-6.8,2.2c-2.3,1.5-4.4,3.4-6,5.5c-2.9,3.2-5.1,6.9-6.7,10.9
		c-1.3,3.2-1.7,6.8-1,10.2c0.8,3.4,3.2,6.5,6.2,7l1-1.4l1.6-2.1c-0.3,0.8,0,0.8,0.7,1.1c0.7,0.4,1.5,0.1,1.9-0.6c0,0,0-0.1,0.1-0.1
		c0.6,0.7,1.8-0.2,1.5-1.1c0.7,0.3,1.5-0.6,1.2-1.5c0.8,0.2,1.1-1.1,1.5-1.9c0.2-0.5,0.5-0.9,0.7-1.3c0.7-1.5,1-3.1,0.9-4.7
		c0.8-1.4,1.2-3,1.1-4.6c0-1,0.1-2.1,0.1-3.1c0.2-0.3,0.3-0.5,0.5-0.8c0,0.7,0.5,1.3,1.2,1.5c0.6,0.1,1.3,0,1.8-0.2l1.8-0.5l1.2,0.2
		c-0.1,1,0.1,2.1,0.6,2.9c0.2,0.7,0.6,1.3,1.2,1.7c0.5,0.1,0.9-0.1,1.1-0.6c0-0.1,0-0.3,0-0.4c0.4,0.3,1,0.3,1.3-0.2
		c0-0.1,0.1-0.1,0.1-0.2c0.3-0.6,0.4-1.3,0.3-1.9c-0.2-1.6-0.8-3.1-1.8-4.3l3.4,2.7c0.2,0.2,0.5,0.4,0.8,0.4c0,0.5,0.4,0.8,0.8,0.9
		c0.1,0,0.1,0,0.2,0c0.5-0.2,0.8-0.5,1.1-0.9c0.7-0.9,1.4-2.3,0.6-3.2c0.3-0.2,0.5-0.6,0.3-1c0,0,0-0.1-0.1-0.1l3.8,2.4
		c-0.4-0.2-0.7,0.4-0.6,0.9c0.1,0.4,0.4,0.8,0.8,1c-0.3,0.5-0.4,1.1-0.3,1.7c-0.7-0.5-1.6,0.6-1.3,1.5c0.3,0.8,1.1,1.4,2,1.3
		c0.7,0.1,1.4-0.5,1.5-1.2c0.8,0.1,1.5-1.1,1.1-1.9c0.6,0.3,1-0.7,1-1.5c-0.1-1.4-0.4-2.7-0.9-3.9c0.1,0.1,0.2,0.1,0.3,0.1
		c0,0,0,0,0,0c0,0,0.1-0.1,0.1-0.2l2.3,4.4c0.7,1.2,1.2,2.6,1.4,4c0.1,0.6,0.2,1.4,0.7,1.4c0.1,0,0.3,0,0.4-0.1c1.4-1,2.4-2.4,2.9-4
		c0.2-0.6,0.3-1.2,0.4-1.8C399.3,93.3,399,92.1,398.6,90.9z"/>
	<path class="st8" d="M382.8,89.3c0.2-0.3,0.3-0.6,0.4-0.9c0-0.4-0.1-0.7-0.4-1c-0.4-0.3-0.9-0.4-1.3-0.2l-0.3,0.1l0.1-0.3
		c0.2-0.5,0-1.1-0.5-1.5c-0.5-0.3-1.3-0.3-1.7,0.2l-0.2-0.2c0-0.1,0.1-0.1,0.1-0.2c0-0.2,0-0.4-0.1-0.6c-0.1-0.2-0.4-0.3-0.6-0.3
		c-0.2,0-0.5,0-0.7,0.1c-0.2,0.1-0.5,0.2-0.8,0.2c-0.3,0-0.5-0.3-0.7-0.4c-0.2-0.1-0.4-0.2-0.6-0.3c-0.4-0.1-0.7-0.2-1.1-0.2
		c-0.6,0-1.1,0.2-1.6,0.5c-0.3,0.2-0.5,0.4-0.5,0.4c0.1-0.2,0.2-0.4,0.4-0.5c0.5-0.4,1-0.6,1.6-0.6c0.4,0,0.8,0,1.2,0.1
		c0.2,0.1,0.4,0.2,0.6,0.3c0.2,0.1,0.4,0.3,0.5,0.3c0.2,0,0.4-0.1,0.6-0.2c0.3-0.1,0.5-0.1,0.8-0.1c0.3,0,0.6,0.2,0.8,0.4
		c0.2,0.3,0.3,0.6,0.2,0.9c0,0.1-0.1,0.2-0.1,0.3l-0.2-0.2c0.5-0.6,1.4-0.7,2.1-0.2c0.6,0.4,0.8,1.1,0.6,1.8l-0.2-0.2
		c0.5-0.2,1.2-0.1,1.6,0.3c0.3,0.3,0.5,0.7,0.4,1.2c0,0.3-0.1,0.5-0.3,0.7C383,89.3,382.9,89.3,382.8,89.3z"/>
	<path class="st8" d="M390.6,90.6c0.2-0.3,0.4-0.6,0.5-0.9c0.1-0.4,0-0.8-0.2-1.1c-0.3-0.4-0.8-0.7-1.3-0.8h-0.2l0.1-0.2
		c0.4-0.5,0.5-1.1,0.4-1.7c-0.1-0.3-0.4-0.5-0.7-0.6c-0.3-0.1-0.7-0.1-0.9,0.2l-0.8,1l0.5-1.2c0.2-0.4,0.2-0.9,0-1.3
		c-0.2-0.4-0.6-0.7-1.1-0.8c-0.3-0.1-0.7,0-1,0.2l-0.3,0.2l0.1-0.4c0.2-0.5-0.4-1.1-1-1.1c-0.6,0-1.1,0.1-1.6,0.4l-0.3,0.2l0.1-0.3
		c0.1-0.4-0.1-0.9-0.5-1.1c-0.3-0.2-0.7-0.4-1.1-0.4c-0.7-0.1-1.3,0-2,0.2c-0.6,0.2-1.1,0.4-1.6,0.7c0,0,0.1-0.1,0.4-0.3
		c0.9-0.6,2.1-0.9,3.2-0.9c0.4,0,0.9,0.2,1.2,0.4c0.4,0.3,0.6,0.8,0.6,1.3l-0.2-0.1c0.5-0.4,1.1-0.6,1.8-0.6c0.4,0,0.7,0.2,0.9,0.5
		c0.3,0.3,0.4,0.7,0.3,1.1l-0.2-0.2c0.4-0.2,0.8-0.3,1.2-0.2c0.6,0.1,1.1,0.5,1.4,1c0.2,0.5,0.2,1.1,0,1.6l-0.2-0.2
		c0.3-0.3,0.8-0.4,1.2-0.3c0.4,0.1,0.7,0.4,0.8,0.8c0.2,0.7,0,1.4-0.5,1.9l-0.1-0.2c0.6,0,1.1,0.4,1.4,0.9c0.2,0.4,0.3,0.9,0.1,1.3
		c-0.1,0.3-0.2,0.5-0.4,0.7C390.7,90.6,390.6,90.7,390.6,90.6z"/>
	<path class="st8" d="M407.2,90.7c0-0.3-0.2-0.6-0.5-0.8c-0.3-0.2-0.7-0.3-1-0.3c-0.5,0.1-1,0.2-1.4,0.5l-0.2,0.1v-0.2
		c-0.1-0.6-0.6-1.1-1.2-1.2c-0.7,0-1.5,0.1-2.1,0.5l-0.9,0.4l0.8-0.7c0.4-0.5,0.3-1.2-0.2-1.5c0,0,0,0,0,0c-0.6-0.4-1.3-0.5-2-0.3
		h-0.1l-0.6,0.1l0.5-0.4c0.4-0.5,0.4-1.2-0.1-1.7c-0.1-0.1-0.1-0.1-0.2-0.2c-0.7-0.3-1.4-0.1-2,0.4l-0.6,0.6l0.4-0.7
		c0.4-0.9,0.3-1.9-0.2-2.7c-0.4-0.6-1.2-1-1.9-1c-0.5,0-1,0.1-1.4,0.3c-0.3,0.2-0.4,0.3-0.5,0.3l0.1-0.1c0.1-0.1,0.2-0.2,0.3-0.3
		c0.4-0.3,1-0.4,1.5-0.4c0.8,0,1.6,0.4,2.1,1c0.6,0.9,0.7,2,0.3,3l-0.2-0.2c0.6-0.6,1.5-0.8,2.3-0.4c0.4,0.2,0.7,0.6,0.8,1.1
		c0.1,0.5-0.1,1-0.4,1.3l-0.1-0.3h0.1c0.8-0.2,1.6-0.1,2.2,0.4c0.3,0.2,0.5,0.6,0.6,1c0.1,0.4,0,0.8-0.3,1l-0.2-0.2
		c0.7-0.4,1.5-0.6,2.3-0.5c0.8,0.1,1.3,0.7,1.4,1.5l-0.2-0.1c0.5-0.2,1-0.4,1.5-0.4c0.4,0,0.8,0.1,1.1,0.4c0.2,0.2,0.3,0.4,0.4,0.6
		C407.2,90.6,407.2,90.7,407.2,90.7z"/>
	<path class="st8" d="M397.2,75.8c0,0-0.1,0.1-0.4,0.2c-0.4,0.1-0.8,0.2-1.2,0.2c-0.6,0-1.2,0.1-1.7,0.4c-0.3,0.2-0.5,0.5-0.5,0.8
		c-0.1,0.3,0.1,0.7,0.4,0.9l-0.2,0.2c-0.1-0.4-0.6-0.6-1.1-0.8c-0.5-0.2-1-0.4-1.5-0.5c-0.5-0.1-1,0-1.4,0.4
		c-0.4,0.3-0.6,0.7-0.5,1.2l0.1,0.4l-0.3-0.2c-0.6-0.4-1.3-0.7-2.1-0.7c-0.6,0-1.2,0.1-1.7,0.4c-0.5,0.3-0.9,0.6-1.2,1
		c0.1-0.1,0.1-0.3,0.2-0.4c0.3-0.3,0.6-0.6,0.9-0.8c0.5-0.3,1.2-0.5,1.8-0.5c0.8,0,1.6,0.2,2.2,0.7l-0.2,0.1
		c-0.1-0.6,0.1-1.2,0.6-1.5c0.5-0.4,1.1-0.5,1.7-0.4c0.6,0.1,1.1,0.3,1.6,0.5c0.2,0.1,0.5,0.2,0.7,0.4c0.3,0.1,0.4,0.4,0.5,0.7
		l0.1,0.3l-0.3-0.1c-0.4-0.2-0.6-0.7-0.6-1.2c0.1-0.4,0.3-0.8,0.7-1c0.6-0.3,1.2-0.4,1.8-0.4c0.4,0,0.8,0,1.2-0.1
		C396.9,75.8,397.1,75.8,397.2,75.8z"/>
	<path class="st8" d="M381.5,71.2c-0.3,0-0.5,0.1-0.8,0.2c-0.3,0.1-0.5,0.3-0.7,0.6c-0.3,0.3-0.4,0.7-0.4,1.1v0.2h-0.2
		c-0.5-0.1-1,0.2-1.1,0.7c-0.1,0.6-0.1,1.2,0.1,1.7l0.1,0.6l-0.4-0.5l-0.1-0.1c-0.3-0.3-0.7-0.4-1.1-0.4c-0.4,0-0.7,0.2-1,0.5
		c-0.4,0.5-0.6,1.2-0.5,1.9c0.1,0.5,0.2,0.9,0.5,1.3c0.1,0.1,0.2,0.3,0.2,0.5c0,0-0.1-0.1-0.3-0.4c-0.3-0.4-0.5-0.9-0.6-1.3
		c-0.2-0.7,0-1.5,0.5-2.1c0.6-0.7,1.7-0.9,2.4-0.3c0,0,0.1,0,0.1,0.1l0.1,0.1l-0.3,0.1c-0.2-0.6-0.2-1.3-0.1-1.9
		c0.2-0.6,0.8-1,1.4-0.9l-0.2,0.1c0-0.8,0.6-1.5,1.3-1.8c0.2-0.1,0.4-0.1,0.6-0.1C381.4,71.1,381.5,71.1,381.5,71.2z"/>
	<path class="st8" d="M368.8,81.6c0,0-0.2,0-0.4,0c-0.4-0.1-0.7-0.3-1-0.6c-0.4-0.4-0.7-0.9-0.8-1.5c0-0.3-0.1-0.6-0.3-0.8
		c-0.2-0.2-0.6-0.3-0.8-0.6c-0.5-0.7-0.4-1.6,0.2-2.1v0.2c-0.6-0.5-1.1-1-1.5-1.7c-0.2-0.3-0.3-0.5-0.3-0.8c0,0,0.2,0.3,0.4,0.7
		c0.4,0.6,0.9,1.1,1.5,1.5l0.2,0.1l-0.1,0.1c-0.5,0.4-0.5,1.2-0.2,1.7c0.2,0.3,0.5,0.4,0.8,0.6c0.2,0.3,0.3,0.6,0.3,1
		c0.1,0.5,0.3,1,0.7,1.4C368,81.2,368.4,81.5,368.8,81.6z"/>
	<path class="st8" d="M365.1,84.7c0,0-0.1,0-0.3,0.1c-0.2,0-0.5,0-0.7,0c-0.9-0.1-1.7-0.5-2.4-1.1h0.2c-0.4,0.6-1,1-1.7,1.1
		c-0.4,0.1-0.8,0.1-1.2,0c-0.4-0.1-0.8-0.3-1-0.7c-0.1-0.1-0.1-0.3-0.2-0.4c0-0.1-0.1-0.2-0.2-0.3c-0.2-0.1-0.5-0.2-0.7-0.3
		c-0.3,0-0.6-0.1-0.8-0.3c-0.3-0.1-0.5-0.4-0.5-0.7l0.2,0.1c-0.6,0.3-1.2,0.4-1.9,0.2c-0.5-0.1-0.9-0.3-1.3-0.7
		c-0.2-0.2-0.4-0.5-0.6-0.8c-0.1-0.1-0.1-0.2-0.1-0.3c0.2,0.4,0.5,0.7,0.8,0.9c0.4,0.3,0.8,0.5,1.2,0.6c0.6,0.1,1.2,0.1,1.7-0.2
		l0.2-0.1v0.2c0,0.2,0.2,0.4,0.4,0.5c0.2,0.1,0.5,0.2,0.7,0.2c0.3,0,0.6,0.1,0.9,0.3c0.1,0.1,0.3,0.2,0.3,0.4
		c0.1,0.2,0.1,0.3,0.1,0.4c0.2,0.3,0.5,0.5,0.9,0.5c0.3,0.1,0.7,0.1,1,0c0.6-0.1,1.2-0.5,1.6-1l0.1-0.1l0.1,0.1
		c0.6,0.6,1.4,1,2.2,1.1C364.8,84.7,365.1,84.7,365.1,84.7z"/>
	<path class="st8" d="M341.6,96.3C341.6,96.3,341.6,96.3,341.6,96.3c0-0.2-0.1-0.3-0.1-0.4c-0.1-0.4-0.1-0.8,0-1.2
		c0.1-0.6,0.4-1.2,0.7-1.8c0.2-0.4,0.4-0.7,0.6-1c0.1-0.2,0.3-0.3,0.5-0.5c0.2-0.1,0.5-0.2,0.8-0.1l-0.2,0.1
		c-0.2-1.1,0.5-2.2,1.6-2.4c0.5-0.1,1.1,0,1.6,0.3l-0.2,0.1c0-0.5,0.1-0.9,0.5-1.2c0.4-0.3,0.8-0.4,1.3-0.3c0.2,0.1,0.5,0.2,0.6,0.4
		l-0.3,0.1c0-0.3,0.1-0.6,0.3-0.8c0.2-0.2,0.4-0.3,0.7-0.4c0.5,0,0.9,0,1.3,0.2l-0.2,0.1c0.3-0.5,0.7-0.9,1.2-1.1
		c0.5-0.2,1-0.2,1.5-0.1c0.9,0.2,1.7,0.5,2.4,1l-0.2,0.2c-0.1-0.2-0.1-0.4,0-0.5c0.1-0.1,0.2-0.3,0.4-0.3c0.2-0.1,0.5-0.2,0.8-0.2
		c0.4,0,0.9,0.1,1.3,0.3c0.3,0.1,0.5,0.2,0.7,0.4c0.1,0,0.2,0.1,0.2,0.2c0,0-0.3-0.2-1-0.4c-0.4-0.1-0.8-0.2-1.2-0.2
		c-0.2,0-0.5,0.1-0.7,0.2c-0.2,0.1-0.4,0.4-0.3,0.6l0.2,0.3l-0.4-0.2c-0.7-0.4-1.5-0.7-2.3-0.9c-0.5-0.1-0.9,0-1.4,0.1
		c-0.5,0.1-0.9,0.5-1.1,0.9l-0.1,0.1h-0.1c-0.4-0.2-0.8-0.2-1.2-0.2c-0.4,0-0.7,0.4-0.7,0.8l0.1,0.5l-0.4-0.4
		c-0.1-0.1-0.3-0.3-0.5-0.3c-0.3-0.1-0.7,0-1,0.2c-0.3,0.2-0.4,0.6-0.4,0.9v0.3l-0.3-0.2c-0.6-0.4-1.4-0.4-2,0
		c-0.5,0.4-0.8,1.1-0.7,1.8v0.2l-0.2-0.1c-0.4-0.2-0.7,0.1-1,0.4c-0.2,0.3-0.4,0.6-0.6,1c-0.3,0.5-0.6,1.1-0.7,1.7
		C341.5,95.1,341.5,95.7,341.6,96.3z"/>
	<path class="st8" d="M344.1,105.1c-0.1-0.1-0.1-0.1-0.2-0.2c-0.2-0.2-0.3-0.4-0.4-0.6c-0.2-0.3-0.3-0.7-0.3-1.1
		c0-0.2,0.1-0.5,0.2-0.7c0.1-0.3,0.4-0.5,0.6-0.6v0.2c-0.3-0.4-0.4-1-0.2-1.5c0.3-0.6,0.9-0.9,1.5-0.8l-0.1,0.2
		c-0.3-0.4-0.3-1-0.1-1.4c0.3-0.4,0.8-0.7,1.3-0.7c0.2,0,0.5,0,0.7-0.1c0.2,0,0.3-0.2,0.4-0.4c0.1-0.2,0.2-0.5,0.3-0.7
		c0.2-0.2,0.4-0.4,0.7-0.5c0.5-0.1,1.1-0.2,1.6-0.2c0.5,0,1-0.2,1.3-0.5c0.1-0.2,0.3-0.4,0.4-0.6c0.4-0.7,1.3-0.9,2-0.6l-0.2,0.2
		c-0.3-0.4-0.3-1,0-1.4c0.3-0.4,0.7-0.6,1.1-0.7c0.7-0.1,1.4-0.1,2,0.1c0.4,0.1,0.8,0.2,1.2,0.4c0.1,0.1,0.3,0.1,0.4,0.2
		c0,0-0.6-0.2-1.7-0.4c-0.6-0.1-1.3-0.1-2,0c-0.4,0.1-0.7,0.3-0.9,0.6c-0.2,0.3-0.2,0.8,0,1.1l0.4,0.5l-0.5-0.3
		c-0.4-0.2-0.8-0.2-1.2,0c-0.2,0.1-0.4,0.3-0.5,0.4c-0.1,0.2-0.2,0.4-0.4,0.7c-0.2,0.2-0.4,0.4-0.7,0.5c-0.3,0.1-0.5,0.1-0.8,0.1
		c-0.5,0-1.1,0.1-1.6,0.2c-0.2,0.1-0.4,0.2-0.6,0.4c-0.1,0.2-0.2,0.4-0.3,0.6c-0.1,0.3-0.3,0.5-0.6,0.6c-0.2,0-0.5,0.1-0.7,0.1
		c-0.4,0-0.8,0.2-1.1,0.6c-0.2,0.3-0.2,0.7,0,1l0.3,0.3l-0.4-0.1c-0.5-0.1-1,0.2-1.3,0.7c-0.2,0.4-0.1,0.9,0.1,1.3l0.1,0.1H344
		c-0.4,0.2-0.7,0.6-0.7,1.1c0,0.4,0.1,0.8,0.3,1.1C343.8,104.5,344,104.8,344.1,105.1z"/>
	<path class="st8" d="M343.2,121.9c-0.1,0-0.2,0-0.3-0.1c-0.3-0.1-0.5-0.3-0.8-0.5c-0.3-0.3-0.6-0.8-0.6-1.3
		c-0.1-0.6,0.1-1.3,0.5-1.8v0.2c-0.4-0.4-0.7-0.9-0.9-1.5c-0.1-0.3-0.1-0.7,0-1c0.1-0.4,0.3-0.7,0.7-0.8v0.3
		c-0.6-0.3-0.9-0.9-0.9-1.5c0-0.4,0.1-0.7,0.2-1c0.2-0.3,0.4-0.5,0.7-0.7c0.3-0.2,0.4-0.3,0.4-0.6c0-0.3,0-0.6,0.1-0.9
		c0.2-0.5,0.6-1,1-1.3c0.4-0.3,0.8-0.7,1.1-0.9c0.5-0.5,1.1-0.8,1.8-1c0.2-0.1,0.4-0.1,0.6-0.1c0.1,0,0.2,0,0.2,0s-0.3,0-0.7,0.2
		c-0.6,0.3-1.2,0.6-1.7,1.1l-1.1,1c-0.4,0.3-0.7,0.7-0.9,1.2c-0.1,0.3-0.1,0.5-0.1,0.8c0,0.2,0,0.4-0.1,0.5
		c-0.1,0.1-0.2,0.3-0.4,0.3c-0.5,0.3-0.9,0.9-0.8,1.5c0,0.5,0.3,1,0.7,1.3l0.3,0.1l-0.3,0.1c-0.5,0.3-0.7,0.9-0.5,1.5
		c0.2,0.5,0.5,1,0.9,1.4l0.1,0.1l-0.1,0.1c-0.4,0.4-0.5,1-0.5,1.6c0,0.4,0.2,0.9,0.5,1.2C342.5,121.5,342.8,121.7,343.2,121.9z"/>
	<path class="st8" d="M369,94.7c-0.3,0-0.7-0.1-0.9-0.3c-0.3-0.2-0.6-0.4-0.9-0.7c-0.3-0.4-0.5-0.8-0.4-1.3c0-0.1,0-0.2,0.1-0.3
		l0.1,0.2c-0.4-0.2-0.7-0.5-0.8-1c-0.1-0.3-0.1-0.7,0.1-1c0.3-0.5,0.7-0.6,0.7-0.6c0,0-0.3,0.2-0.5,0.7c-0.1,0.3-0.1,0.6,0,0.8
		c0.1,0.3,0.4,0.6,0.7,0.8h0.1l-0.1,0.1c0,0.1-0.1,0.2-0.1,0.3c0,0.4,0.1,0.8,0.3,1.1c0.2,0.3,0.5,0.5,0.8,0.6
		C368.5,94.3,368.8,94.5,369,94.7z"/>
	<path class="st8" d="M375.9,90.7c0.1-0.3,0.2-0.7,0.1-1.1c-0.1-0.4-0.4-0.8-0.8-0.9c-0.5-0.2-1.1,0-1.4,0.4l-0.2,0.2l-0.1-0.3
		c-0.1-0.3-0.2-0.6-0.4-0.9c-0.2-0.3-0.5-0.5-0.8-0.5c-0.5,0-1,0.5-0.8,0.9l-0.3,0.1c-0.1-0.6-0.5-1.1-1-1.5
		c-0.4-0.3-0.9-0.4-1.4-0.4c-0.4,0-0.9,0.2-1.3,0.4c0,0,0.1-0.1,0.3-0.2c0.8-0.4,1.7-0.4,2.5,0.1c0.6,0.4,1,0.9,1.1,1.6l-0.3,0.1
		c-0.1-0.3,0-0.7,0.2-0.9c0.2-0.2,0.6-0.4,0.9-0.4c0.4,0,0.8,0.2,1.1,0.6c0.2,0.3,0.4,0.6,0.5,1h-0.2c0.5-0.5,1.1-0.6,1.8-0.4
		c0.5,0.2,0.8,0.6,0.9,1.1c0.1,0.3,0,0.6-0.1,0.9C376,90.7,375.9,90.7,375.9,90.7z"/>
	<path class="st12" d="M358.5,111.3c-0.2-0.1-7.6-2.3-7.4,5.2s7.7,5.9,7.7,5.6S358.5,111.3,358.5,111.3z"/>
	<path class="st13" d="M356.4,119.3c0,0-0.1,0.1-0.4,0.2c-0.3,0.1-0.7,0.1-1,0c-1-0.6-1.6-1.7-1.6-2.9c0-0.6,0.1-1.3,0.3-1.9
		c0.1-0.5,0.5-0.9,1-1c0.3-0.1,0.6,0.1,0.8,0.3c0.1,0.2,0.1,0.4,0.1,0.4s0.2-0.1,0.1-0.4c0-0.2-0.1-0.3-0.3-0.5
		c-0.2-0.2-0.5-0.2-0.7-0.2c-0.6,0.1-1.1,0.6-1.4,1.2c-0.3,0.7-0.5,1.4-0.4,2.1c0.1,1.5,0.9,2.9,2,3.2c0.4,0.1,0.9,0,1.2-0.2
		C356.4,119.5,356.4,119.3,356.4,119.3z"/>
	<path class="st5" d="M356.1,143.6l2.5-5.3c0,0,2.2,12,6.9,16.8l5.6,6.1l0.2-2.7l14.4-13.6l-0.2-4.3l6,8l11.3,10.1l-16.4,90.8
		l-1.1,11.7l-33.8-4.6l-9-59.7c0,0-2.9-31.4-2.6-31c0.3,0.4,3.3-12.4,3.3-12.4L354,148L356.1,143.6z"/>
	<path class="st8" d="M325.8,156.4c0,0-6.3,5.2-8.6,16.6s-10.4,53.5-10.4,57.2c0,0,3.8,17.8,8.5,28.7c4.3,9.9,9.2,18.8,9.6,18.3
		l10.9-13.2l-7.6-37.2l0.6-3l2.1-5.5l3.4-17.6L325.8,156.4z"/>
	<path class="st8" d="M329.8,244.8l1.8-22.2l-0.6-5.4l-3.5-32.3l-1.8-28.5l23.5-8.5l2.3-0.8l4.5-4.6l1.4,46c0,0,0.7,37.3,0.2,40.4
		c-0.5,3-4.7,46.5-19.9,60.6c0,0-6,7.3-8.4,5.7s-8.2-27.8-8.2-27.8L329.8,244.8z"/>
	<path class="st1" d="M352,146.5c0,0-0.1,0.2-0.3,0.5l-1,1.4l-3.7,5.1l0,0h-0.1l-3.2,1.2l0.1-0.2c1.5,7.5,3.7,17.9,6,29.5
		c2.2,11.4,4.3,21.7,5.8,29.2l1.7,8.8c0.2,1,0.3,1.8,0.4,2.4c0.1,0.3,0.1,0.6,0.1,0.8c-0.1-0.3-0.2-0.5-0.2-0.8
		c-0.1-0.6-0.3-1.4-0.5-2.4c-0.5-2.1-1.1-5.1-1.9-8.8c-1.5-7.5-3.6-17.8-6-29.2c-2.3-11.6-4.4-22-5.8-29.5v-0.2l0.1,0l3.2-1.1
		l-0.1,0.1l3.8-5c0.4-0.5,0.8-1,1-1.3C351.7,146.8,351.8,146.6,352,146.5z"/>
	<path class="st8" d="M386.6,142.1l6.5,6l22.7,12.2l-6.6,28.1l-2.3,34.5l3.2,21.8l7.8,41c0,0-27.5,7.5-30.7,5.8
		c-3.2-1.7-2.8-6.4-2.9-6.8s-5-41.6-5-41.6l-1-16c0,0-0.4-27.4,1.4-33.5c1.9-6.1,4.7-26,5.6-31.6c1-5.5,2.1-9.3,2.8-12.1
		c0.4-1.5,0.7-3.1,0.8-4.7L386.6,142.1z"/>
	<path class="st8" d="M397.4,247.7c0.2,3.5,0.7,6.9,1.5,10.3c5.4-0.6,10.7-1.8,15.9-3.5c-0.9-2.4-1.8-4.8-2.7-7.2
		c-0.1-0.6-0.5-1.1-0.9-1.4c-0.6-0.2-1.2-0.3-1.8-0.1L397.4,247.7"/>
	<path class="st1" d="M397.4,247.7c0.6-0.2,1.2-0.3,1.8-0.4l4.9-0.9l3.4-0.6l1.9-0.3c0.4-0.1,0.7-0.1,1.1-0.1c0.4,0,0.8,0.2,1.1,0.4
		c0.5,0.6,0.8,1.3,1,2l0.8,2.1c0.5,1.4,1.1,2.9,1.7,4.5l0.1,0.3l-0.3,0.1l-1.6,0.5c-4.7,1.4-9.5,2.4-14.3,3h-0.2v-0.2
		c-0.6-2.5-0.9-5-1.1-7.6c-0.1-0.9-0.1-1.6-0.1-2.1c0-0.2,0-0.5,0-0.8c0.1,0.2,0.1,0.5,0.1,0.7c0.1,0.6,0.2,1.3,0.3,2.1
		c0.3,2.5,0.7,5,1.3,7.5l-0.3-0.2c4.8-0.6,9.6-1.6,14.2-3.1l1.6-0.5l-0.2,0.4c-0.6-1.5-1.1-3-1.6-4.5l-0.8-2.1
		c-0.2-0.7-0.5-1.3-0.9-1.8c-0.5-0.3-1.1-0.4-1.7-0.3l-1.9,0.3l-3.4,0.5l-4.9,0.7C398.7,247.6,398.1,247.7,397.4,247.7z"/>
	<path class="st1" d="M327.4,290.7c-0.1-0.1-0.1-0.3-0.1-0.4l-0.4-1.2c-0.3-1.1-0.8-2.7-1.3-4.7l-4.6-17.1v-0.1v-0.1l8.6-22.4v0.1
		c0.4-4.4,0.7-9,1.1-13.7c0.2-2.9,0.5-5.8,0.7-8.5l0,0c-1.3-15.1-2.8-28.3-3.7-37.9c-0.5-4.8-0.8-8.6-1-11.2c-0.1-1.3-0.2-2.3-0.2-3
		c0-0.3,0-0.6,0-0.8c0-0.1,0-0.2,0-0.3c0,0.1,0,0.2,0,0.3c0,0.2,0.1,0.5,0.1,0.8c0.1,0.7,0.2,1.7,0.3,3c0.3,2.7,0.7,6.5,1.2,11.2
		c1,9.5,2.5,22.8,3.9,37.9l0,0c-0.2,2.7-0.5,5.6-0.7,8.5c-0.4,4.7-0.8,9.3-1.1,13.7v0.1c-3.2,8.3-6.2,16-8.6,22.4v-0.1
		c1.8,7.1,3.3,13,4.4,17.1l1.2,4.7c0.1,0.5,0.2,0.9,0.3,1.2C327.4,290.4,327.4,290.5,327.4,290.7z"/>
	<path class="st1" d="M314.4,224.4c0.7-0.2,1.4-0.4,2.1-0.3c1.7-0.1,3.4,0,5.1,0.4c1.7,0.3,3.3,0.8,4.8,1.5c0.7,0.2,1.3,0.6,1.8,1
		c-2.2-0.8-4.5-1.5-6.8-2C319.1,224.6,316.7,224.5,314.4,224.4z"/>
	<path class="st1" d="M378.4,225.3c0-0.3,0.1-0.6,0.2-0.8c0.2-0.6,0.4-1.4,0.6-2.4c0.6-2.1,1.4-5.1,2.4-8.7l8.2-28.6
		c3.3-11.2,6.2-21.3,8.4-28.5v0.2l-5.1-5.3l0,0l0,0l-1.4-3.5c-0.1-0.4-0.2-0.7-0.3-0.9c0-0.1-0.1-0.2-0.1-0.3
		c0.1,0.1,0.1,0.2,0.2,0.3l0.4,0.9c0.4,0.8,0.8,2,1.5,3.4l0,0l5.2,5.2l0.1,0.1v0.1c-2.1,7.3-5,17.4-8.2,28.6l-8.4,28.5l-2.6,8.6
		l-0.7,2.3C378.7,224.8,378.6,225,378.4,225.3z"/>
	<path class="st1" d="M406.3,174.8c-0.1-0.8,0-1.6,0.2-2.4c0.9-3.9,3.1-7.4,6.2-9.9c0.6-0.5,1.3-1,2.1-1.3c0.1,0.2-3.2,2.1-5.5,6
		C407.9,169.6,406.9,172.2,406.3,174.8z"/>
	<g class="st6">
		<path d="M406.1,235.1l-7.2-4.9c-2.5-1.9-5.2-3.4-8.1-4.5c-2.2-0.8-4.6-1.1-6.9-1.8c-2.3-0.8-4.3-2.4-5.6-4.5
			c0,1.1,0.1,3.1,0.1,4.2c0.2,2,2.1,3.1,4,4c1.8,0.9,3.9,1.5,5.3,3c0.8,0.9,1.4,2,2.1,3c1.7,1.9,4,3.4,6.5,4.1c3.9,1.5,7.9,2.5,12,3
			c0.3,0.1,0.7,0,1-0.1c0.2-0.2,0.3-0.5,0.3-0.8C409.6,237.7,407.8,236.3,406.1,235.1z"/>
	</g>
	<path class="st8" d="M415.8,160.4c0,0,4.1,1.8,5.8,9.3s11.1,53.4,10.9,58.1c-0.2,4.7-2.3,8.2-6.5,9.7c-4.2,1.6-8.7,2-13.1,1.2
		c-5.6-1.1-11.1-2.5-16.4-4.3c-1.9-0.6-3.8-1.5-5.6-2.5c-0.4-3.4-0.2-6.8,0.7-10.1c1.4-4.9,6.6-11.4,6.6-11.4l13.2,4.1l-3.5-15.8
		l4.2-33.2L415.8,160.4z"/>
	<path class="st1" d="M411.4,214.6c0.9,0.2,1.7,0.5,2.4,1c1.9,1,3.6,2.3,5.1,3.7c1.5,1.5,2.8,3.2,3.8,5.1c0.5,0.7,0.8,1.6,1,2.4
		c-1.4-2.6-3.2-4.9-5.2-7.1C416.4,217.7,414,216,411.4,214.6z"/>
	<path class="st1" d="M428.1,220.9c-0.1,0-0.7-0.8-2-2c-3.3-3-7.6-4.7-12.1-4.7c-1.7,0-2.7,0.2-2.8,0.1c0-0.1,0.2-0.1,0.7-0.3
		c0.7-0.2,1.4-0.3,2-0.3c4.6-0.3,9.1,1.5,12.4,4.8c0.5,0.5,0.9,1,1.3,1.6C427.9,220.4,428,220.6,428.1,220.9z"/>
	<path class="st1" d="M407.9,198.7c0,0.1,0.1,0.2,0.1,0.3c0.1,0.2,0.1,0.5,0.2,0.8l0.8,3.1c0.7,2.8,1.6,6.7,2.7,11.5l0.1,0.4
		l-0.4-0.1l-13.2-4h0.2c-2,1.2-3.7,2.9-4.8,4.9c-1.2,2.2-2,4.6-2.3,7.1c-0.2,1.5-0.3,3.1-0.3,4.7c0,1.5,0.1,3,0.3,4.5l-0.1-0.2
		c2.1,1.2,4.3,2.2,6.7,2.8c2.2,0.7,4.4,1.2,6.5,1.7c2.1,0.5,4.1,1,5.9,1.5c1.7,0.4,3.4,0.8,5.1,0.9c2.5,0.3,4.9,0.2,7.4-0.2
		c0.8-0.2,1.5-0.3,1.9-0.4c0.2-0.1,0.4-0.1,0.7-0.2c-0.2,0.1-0.4,0.2-0.6,0.3c-0.6,0.2-1.3,0.4-1.9,0.5c-2.4,0.5-5,0.7-7.4,0.4
		c-1.7-0.2-3.5-0.5-5.2-0.9c-1.8-0.5-3.8-1-5.9-1.5c-2.1-0.5-4.3-1-6.6-1.7c-2.4-0.6-4.7-1.6-6.8-2.9l-0.1-0.1V232
		c-0.2-1.5-0.3-3.1-0.3-4.6c0-1.6,0.1-3.2,0.3-4.8c0.3-2.6,1.1-5,2.4-7.3c1.2-2.1,2.9-3.9,5.1-5.1l0.1-0.1h0.1l13.2,4.1l-0.3,0.3
		c-1-4.8-1.9-8.8-2.5-11.6c-0.3-1.3-0.5-2.4-0.6-3.2c-0.1-0.3-0.1-0.6-0.2-0.8C407.9,198.9,407.9,198.8,407.9,198.7z"/>
	<path class="st0" d="M371.5,218.3c0,0,0.4-20.2,0.6-21c0.3-0.8,0.4-1.3,2.2-1.4c1.8-0.1,14.2-0.6,15.2-0.2c0.7,0.3,0.9,1,0.9,1.9
		c0,3.9-0.8,17.1-1.1,21.9c-0.1,1-0.9,1.8-1.9,1.7l-14.7-0.2c-0.7,0-1.2-0.6-1.2-1.2L371.5,218.3z"/>
	<path class="st1" d="M375.2,198.7L375.2,198.7c0.7,0,1.2,0.5,1.2,1.1v2.9c0,0.6-0.5,1.1-1.1,1.1h-0.1c-0.6,0-1.1-0.5-1.1-1.1v-2.9
		C374.1,199.3,374.6,198.7,375.2,198.7z"/>
	<path class="st12" d="M390.1,202.8c0,0,1.2-0.9,1.7,0s7.9,11.7,7.9,11.7c0.2,1.9,0.1,3.9-0.3,5.8c-0.6,2.4-1.5,4.7-2.9,6.8
		l-2.4-2.2c0,0-6,1-7.1,0.8c-1.1-0.2-7.4-3.1-8.8-4.7c-1.1-1.2-2.3-2.2-3.6-3.1l-6.2-4.2c-0.4-0.3-0.7-0.7-0.8-1.1
		c-0.2-0.6,0-1.3,0.5-1.7c0.5-0.4,1.2-0.6,1.9-0.3c0,0-0.4-2.1,1-2.4s15.7,4.8,15.7,4.8c0.5-0.1,0.9-0.3,1.2-0.7
		c0.3-0.6-10.2-3.4-10.4-4.5c-0.2-1.1,0.7-2.3,2.4-2.3s9.9,1.8,9.9,1.8L390.1,202.8z"/>
	<path class="st13" d="M393.1,212.7c0,0.1-0.2,0.3-0.8,0.5c-0.7,0.2-1.5,0.2-2.2,0c-1-0.2-1.9-0.6-2.7-1.3c1,0.2,1.9,0.4,2.8,0.8
		C391.2,212.8,392.2,212.8,393.1,212.7z"/>
	<path class="st13" d="M393.3,207.7c0,0.2-0.8,0.1-1.8,0s-1.7-0.5-1.7-0.6c0-0.2,0.8-0.1,1.8,0.1
		C392.5,207.3,393.3,207.5,393.3,207.7z"/>
	<path class="st13" d="M387.9,218.6c-1-0.1-1.9-0.3-2.8-0.7c-4.5-1.4-8.8-3.3-12.8-5.8c-0.9-0.5-1.6-1-2.4-1.7
		c0.9,0.4,1.8,0.8,2.6,1.3c1.6,0.9,3.8,2,6.2,3.1s4.8,2,6.5,2.6C386.1,217.9,387,218.2,387.9,218.6z"/>
	<path class="st13" d="M384.9,221.9c-2-0.1-3.9-0.5-5.7-1.4c-1.8-0.7-3.5-1.7-5-3c0.1-0.1,2.2,1.3,5.2,2.5
		C382.5,221.2,385,221.7,384.9,221.9z"/>
	<path class="st1" d="M398,210.3c0,0,0.3,0.3,0.6,0.8c0.5,0.8,0.9,1.7,1.1,2.5c0.8,3,0.6,6.2-0.6,9c-0.6,1.6-1.3,3.1-2.2,4.5
		c-0.7,1.2-1.7,2.2-2.7,3.1c-0.7,0.6-1.5,1.1-2.3,1.6c-0.3,0.2-0.6,0.3-0.9,0.4c-0.1-0.1,1.2-0.8,3-2.3c1-0.9,1.9-1.9,2.5-3.1
		c0.8-1.4,1.5-2.9,2.1-4.5c1.2-2.7,1.5-5.8,0.8-8.7C399,212.5,398.5,211.4,398,210.3z"/>
	<g class="st6">
		<polygon points="329.4,232.8 324.4,251.4 322.7,263.5 329.8,244.8 330.5,237.3 		"/>
	</g>
	<path class="st1" d="M371,161.2c0,0-0.3-0.4-1.1-0.9c-0.8-0.6-1.9-1.2-3.3-2.2l0.3-0.1c-0.1,1.3-0.2,2.8-0.2,4.5
		c0,1.8,0,3.7-0.2,5.5l-0.1,0.9l-0.4-0.8c-0.6-1-1.1-2-1.8-3c-2.4-3.8-4.5-7.7-6.4-11.7c-0.5-1.2-1-2.5-1.4-3.8
		c-0.2-0.5-0.3-1-0.3-1.5c0.2,0.4,0.4,0.9,0.5,1.4c0.5,1.3,1,2.5,1.5,3.7c1.4,3.1,3.9,7.1,6.6,11.6c0.6,1,1.2,2.1,1.8,3.1l-0.5,0.1
		c0.2-1.9,0.2-3.8,0.2-5.4c0-1.5,0.1-3,0.3-4.5v-0.3l0.3,0.2c1.1,0.7,2.2,1.5,3.2,2.3c0.3,0.2,0.5,0.5,0.8,0.8
		C371,161.1,371.1,161.2,371,161.2z"/>
	<path class="st1" d="M387.5,151c-0.1,0.3-0.2,0.6-0.5,0.9c-0.5,0.7-1.1,1.5-1.7,2.1c-1.5,1.7-3.8,4-6.3,6.4c-1.6,1.5-3.2,3-4.5,4.2
		l-0.3,0.2l-0.1-0.3c-0.9-1.7-1.6-3.2-2.1-4.2c-0.3-0.5-0.5-1.1-0.7-1.7c0.4,0.5,0.7,1,1,1.5c0.6,1,1.4,2.4,2.3,4.1l-0.4-0.1
		l4.5-4.2c2.5-2.4,4.8-4.6,6.4-6.2c0.8-0.8,1.4-1.5,1.8-2C387.3,151.2,387.5,150.9,387.5,151z"/>
	<path class="st1" d="M374.9,190.6c-0.4,0.1-0.9,0.2-1.3,0.2c-0.5,0-1.1,0-1.6-0.1c-0.7-0.1-1.4-0.4-2-0.9c-0.6-0.6-1-1.5-0.9-2.4
		c0-0.9,0-1.9,0-2.9c0.1-2,0.1-4.3,0.2-6.6c0.1-4.7,0.3-8.9,0.5-12c0.1-1.4,0.2-2.7,0.2-3.6c0-0.4,0-0.9,0.2-1.3
		c0.1,0.4,0.1,0.9,0.1,1.3c0,1,0,2.2,0,3.6c0,3.1-0.1,7.3-0.3,12c-0.1,2.3-0.2,4.6-0.2,6.6c-0.1,2.1-0.5,4,0.6,5
		c0.5,0.4,1.1,0.7,1.7,0.8c0.5,0.1,1,0.1,1.5,0.1C374,190.5,374.5,190.5,374.9,190.6z"/>
</g>
</svg>
