<?xml version="1.0" encoding="UTF-8"?>
<svg id="Layer_2" data-name="Layer 2" xmlns="http://www.w3.org/2000/svg" xmlns:xlink="http://www.w3.org/1999/xlink" viewBox="0 0 291.14 153.49">
  <defs>
    <style>
      .cls-1 {
        fill: #fff;
      }

      .cls-2 {
        filter: url(#luminosity-noclip-2);
      }

      .cls-3 {
        mask: url(#mask);
      }
    </style>
    <filter id="luminosity-noclip-2" data-name="luminosity-noclip" x="32.74" y="11.91" width="244.96" height="115.3" color-interpolation-filters="sRGB" filterUnits="userSpaceOnUse">
      <feFlood flood-color="#fff" result="bg"/>
      <feBlend in="SourceGraphic" in2="bg"/>
    </filter>
    <mask id="mask" x="32.74" y="11.91" width="244.96" height="115.3" maskUnits="userSpaceOnUse">
      <g class="cls-2">
        <g>
          <path d="M51.39,94.04l-4.64,33.04h-14.01s10.67-75.94,10.67-75.94l18.22-.08c12.26-.06,17.54,5.52,15.67,18.83l-.38,2.74c-1.52,10.85-6.15,14.08-9.5,15.63,4.23,2.28,5.88,5.76,4.39,16.38-1.03,7.35-2.7,18.46-2.65,22.47h-13.61c-.43-3.45,1.03-13.35,2.39-23.06,1.2-8.56,.47-10.01-4.89-10.01h-1.66Zm1.66-11.52h1.74c4.69-.01,6.83-1.56,7.82-8.64l.52-3.67c.72-5.1,.09-7.64-5.08-7.62h-2.19s-2.8,19.94-2.8,19.94Z"/>
          <path d="M170.94,102.77c1.67-11.86,4.14-28.68,5.65-38.08h-.38c-3.7,15.34-11.35,46.37-15.63,62.49h-12.08c.72-16.74,1.96-48.29,2.42-62.59h-.46c-1.08,8.98-3.04,25.56-4.89,38.75l-3.35,23.83h-12.89s10.74-76.43,10.74-76.43l20.42-.09c-.12,14.54-.63,33.64-1.25,44.01h.31c2.7-11.09,7.42-27.18,12.07-44.06l20.43-.09-10.78,76.7h-13.75s3.43-24.43,3.43-24.43Z"/>
          <path d="M201.32,50.45l19.13-.09c12.42-.06,17.63,6.68,15.72,20.31l-.66,4.7c-1.89,13.48-7.98,21.62-22.17,21.64h-4.21s-4.24,30.21-4.24,30.21h-14.35s10.79-76.76,10.79-76.76Zm9.49,34.59h2.33c5.45-.02,7.04-3.16,7.94-9.56l.75-5.31c.7-4.97,.02-8.17-4.77-8.15h-3.01s-3.23,23.02-3.23,23.02Z"/>
          <path d="M106.32,68.32l-14.49,58.27h-14.82l21.31-75.6h21.68l.32,75.6h-15.12l1.44-58.27h-.31Z"/>
          <path d="M267,44.86h-18.02c-2.02,0-3.91-.84-5.19-2.31-1.29-1.48-1.86-3.5-1.58-5.53l2.53-18.02c.56-3.97,4.12-7.08,8.1-7.08h18.02c2.02,0,3.92,.84,5.19,2.31,1.29,1.48,1.86,3.5,1.58,5.53l-2.53,18.02c-.56,3.97-4.12,7.08-8.1,7.08Z"/>
        </g>
      </g>
    </mask>
  </defs>
  <g id="Layer_1-2" data-name="Layer 1">
    <g>
      <g class="cls-3">
        <path class="cls-1" d="M244.29,153.49H5.25c-3.33,0-5.65-2.7-5.19-6.03L16.55,30.12c.47-3.33,3.55-6.03,6.88-6.03h239.04c3.33,0,5.65,2.7,5.19,6.03l-16.49,117.34c-.47,3.33-3.55,6.03-6.88,6.03Z"/>
      </g>
      <g>
        <path class="cls-1" d="M252.84,17.37c-1.24,0-2.52,1.14-2.7,2.38l-2.53,18.02c-.07,.47,.04,.9,.29,1.19,.25,.29,.62,.44,1.07,.44h18.02c1.24,0,2.52-1.14,2.7-2.38l2.53-18.02c.07-.47-.04-.9-.29-1.19-.25-.29-.62-.44-1.07-.44h-18.02Z"/>
        <path class="cls-1" d="M273.63,12.6h-8.41c-1.15,0-1.96-.94-1.8-2.09l1.18-8.41c.16-1.15,1.23-2.09,2.38-2.09h8.41c1.15,0,1.96,.94,1.8,2.09l-1.18,8.41c-.16,1.15-1.23,2.09-2.38,2.09Z"/>
        <path class="cls-1" d="M283.88,22.47h-6.07c-.51,0-.86-.41-.79-.92l.85-6.07c.07-.51,.54-.92,1.05-.92h6.07c.51,0,.86,.41,.79,.92l-.85,6.07c-.07,.51-.54,.92-1.05,.92Z"/>
        <path class="cls-1" d="M246.98,16.82h-4.76c-.4,0-.68-.33-.62-.72l.67-4.76c.06-.4,.43-.72,.82-.72h4.76c.4,0,.68,.33,.62,.72l-.67,4.76c-.06,.4-.43,.72-.82,.72Z"/>
        <path class="cls-1" d="M286.69,44.55h-11.18c-1.37,0-2.34-1.12-2.14-2.5l1.57-11.18c.19-1.37,1.47-2.5,2.85-2.5h11.18c1.37,0,2.34,1.12,2.14,2.5l-1.57,11.18c-.19,1.37-1.47,2.5-2.85,2.5Z"/>
      </g>
    </g>
  </g>
</svg>